<?xml version="1.0" standalone="no"?>
<!DOCTYPE svg PUBLIC "-//W3C//DTD SVG 20010904//EN"
 "http://www.w3.org/TR/2001/REC-SVG-20010904/DTD/svg10.dtd">
<svg version="1.0" xmlns="http://www.w3.org/2000/svg"
 width="700.000000pt" height="700.000000pt" viewBox="0 0 700.000000 700.000000"
 preserveAspectRatio="xMidYMid meet">
<metadata>
Created by potrace 1.14, written by Peter Selinger 2001-2017
</metadata>
<g transform="translate(0.000000,700.000000) scale(0.100000,-0.100000)"
fill="#000000" stroke="none">
<path d="M6660 5883 c-8 -3 -67 -37 -130 -76 -63 -39 -128 -78 -145 -87 -16
-10 -286 -172 -600 -360 -313 -188 -583 -350 -600 -360 -16 -9 -624 -374
-1350 -810 -744 -447 -1339 -798 -1363 -805 -23 -6 -58 -9 -78 -7 -25 3 -335
184 -1042 608 -674 404 -1016 604 -1034 604 -17 0 -31 -8 -38 -20 -7 -13 -10
-110 -10 -268 l1 -248 28 -50 c27 -47 44 -58 327 -229 164 -99 303 -182 309
-185 15 -7 283 -168 325 -195 34 -22 813 -489 875 -525 17 -9 73 -43 125 -75
84 -52 102 -59 155 -61 36 -1 70 3 87 12 15 8 204 121 420 251 216 130 402
241 413 247 37 21 1650 988 1685 1011 19 12 384 231 810 486 426 254 795 479
819 498 76 60 81 80 81 364 0 234 -1 248 -20 267 -21 21 -25 22 -50 13z"/>
<path d="M6640 4256 c-14 -7 -123 -72 -243 -144 -121 -73 -221 -132 -223 -132
-3 0 -10 -5 -17 -10 -10 -9 -1114 -673 -1212 -730 -16 -9 -106 -63 -198 -119
-93 -55 -171 -101 -173 -101 -3 0 -10 -5 -17 -10 -14 -13 -977 -590 -983 -590
-3 0 -10 -5 -17 -10 -7 -6 -250 -153 -542 -328 -518 -311 -530 -317 -585 -318
-31 -1 -68 5 -85 14 -16 8 -468 278 -1004 600 -536 321 -988 589 -1004 595
-27 9 -33 7 -49 -13 -18 -22 -19 -41 -16 -281 l3 -257 30 -44 c25 -35 73 -69
275 -191 135 -82 253 -151 263 -154 9 -3 17 -9 17 -13 0 -4 8 -11 18 -14 9 -3
26 -12 37 -19 28 -17 442 -265 476 -285 15 -10 99 -60 186 -112 86 -52 165
-99 174 -105 10 -5 44 -25 76 -44 32 -19 81 -49 108 -66 160 -102 415 -247
446 -254 80 -18 89 -14 396 172 282 170 630 379 662 397 14 8 67 40 116 70 50
30 98 60 108 65 9 6 129 77 265 158 288 173 519 311 547 329 11 6 139 83 285
171 146 88 279 168 296 178 18 9 67 39 110 66 44 27 86 52 94 56 8 4 39 22 68
40 29 18 331 199 670 402 339 204 632 382 652 396 20 15 46 47 58 73 21 43 22
60 22 293 -1 261 -4 283 -46 283 -10 0 -30 -6 -44 -14z"/>
</g>
</svg>
