<?xml version="1.0" encoding="utf-8"?>
<!-- Generator: Adobe Illustrator 16.0.0, SVG Export Plug-In . SVG Version: 6.00 Build 0)  -->
<!DOCTYPE svg PUBLIC "-//W3C//DTD SVG 1.1//EN" "http://www.w3.org/Graphics/SVG/1.1/DTD/svg11.dtd">
<svg version="1.1" id="Layer_1" xmlns="http://www.w3.org/2000/svg" xmlns:xlink="http://www.w3.org/1999/xlink" x="0px" y="0px"
	 width="32px" height="32px" viewBox="0 0 32 32" enable-background="new 0 0 32 32" xml:space="preserve">
<g>
	<path fill="#FFFFFF" d="M29.191,13.083L10.753,0.613C9.655-0.129,8.3-0.202,7.129,0.42s-1.87,1.784-1.87,3.11V28.47
		c0,1.326,0.699,2.488,1.87,3.11C7.657,31.861,8.223,32,8.786,32c0.685,0,1.364-0.206,1.967-0.613l18.438-12.47
		c0.971-0.655,1.55-1.746,1.55-2.917S30.162,13.739,29.191,13.083z M28.479,17.861l-18.439,12.47
		c-0.701,0.474-1.565,0.521-2.312,0.123c-0.748-0.396-1.193-1.14-1.193-1.984V3.53c0-0.846,0.446-1.588,1.193-1.984
		c0.337-0.179,0.698-0.268,1.058-0.268c0.437,0,0.87,0.131,1.255,0.391l18.438,12.47c0.629,0.425,0.988,1.103,0.988,1.861
		S29.105,17.438,28.479,17.861z"/>
	<path fill="#FFFFFF" d="M24.73,12.604l-1.035-0.701c-0.291-0.197-0.688-0.121-0.885,0.17c-0.197,0.292-0.121,0.688,0.17,0.885
		l1.035,0.701c0.108,0.074,0.232,0.11,0.355,0.11c0.204,0,0.404-0.098,0.527-0.28C25.098,13.198,25.021,12.802,24.73,12.604z"/>
	<path fill="#FFFFFF" d="M21.734,10.575L9.308,2.153C9.016,1.956,8.62,2.032,8.423,2.323C8.225,2.614,8.301,3.01,8.593,3.208
		L21.02,11.63c0.11,0.074,0.234,0.11,0.357,0.11c0.204,0,0.405-0.098,0.527-0.28C22.104,11.168,22.025,10.772,21.734,10.575z"/>
</g>
</svg>
