<?xml version="1.0" encoding="utf-8"?>
<!-- Generator: Adobe Illustrator 16.0.0, SVG Export Plug-In . SVG Version: 6.00 Build 0)  -->
<!DOCTYPE svg PUBLIC "-//W3C//DTD SVG 1.1//EN" "http://www.w3.org/Graphics/SVG/1.1/DTD/svg11.dtd">
<svg version="1.1" id="Layer_1" xmlns="http://www.w3.org/2000/svg" xmlns:xlink="http://www.w3.org/1999/xlink" x="0px" y="0px"
	 width="16px" height="16px" viewBox="0 0 16 16" enable-background="new 0 0 16 16" xml:space="preserve">
<g>
	<path fill="#FFFFFF" d="M10.191,9.379c-0.256-0.251-0.668-0.247-0.92,0.01c-0.252,0.258-0.248,0.67,0.01,0.922l5.126,5.018
		c0.126,0.124,0.29,0.186,0.456,0.186c0.169,0,0.338-0.064,0.465-0.195c0.251-0.258,0.247-0.67-0.01-0.922L10.191,9.379z"/>
	<path fill="#FFFFFF" d="M5.586,6.506c0.127,0.127,0.294,0.191,0.46,0.191s0.333-0.063,0.46-0.191c0.254-0.254,0.254-0.667,0-0.921
		l-4.91-4.909c-0.254-0.254-0.667-0.254-0.921,0c-0.254,0.254-0.254,0.667,0,0.921L5.586,6.506z"/>
	<path fill="#FFFFFF" d="M15.324,0.676c-0.254-0.254-0.667-0.254-0.922,0L0.676,14.402c-0.254,0.254-0.254,0.666,0,0.921
		c0.127,0.127,0.294,0.19,0.46,0.19c0.167,0,0.333-0.063,0.46-0.19L15.324,1.597C15.578,1.343,15.578,0.931,15.324,0.676z"/>
</g>
</svg>
