<?xml version="1.0" encoding="utf-8"?>
<!-- Generator: Adobe Illustrator 16.0.0, SVG Export Plug-In . SVG Version: 6.00 Build 0)  -->
<!DOCTYPE svg PUBLIC "-//W3C//DTD SVG 1.1//EN" "http://www.w3.org/Graphics/SVG/1.1/DTD/svg11.dtd">
<svg version="1.1" id="Layer_1" xmlns="http://www.w3.org/2000/svg" xmlns:xlink="http://www.w3.org/1999/xlink" x="0px" y="0px"
	 width="32px" height="32px" viewBox="0 0 32 32" enable-background="new 0 0 32 32" xml:space="preserve">
<g>
	<path fill="#FFC107" d="M23.014,5.511c-1.364,0-2.474,1.11-2.474,2.474s1.11,2.474,2.474,2.474s2.474-1.11,2.474-2.474
		S24.377,5.511,23.014,5.511z M23.014,9.519c-0.846,0-1.534-0.688-1.534-1.534c0-0.846,0.688-1.534,1.534-1.534
		c0.846,0,1.534,0.688,1.534,1.534C24.548,8.831,23.859,9.519,23.014,9.519z"/>
	<path fill="#FFC107" d="M13.996,22.544c-1.64,0-2.975,1.334-2.975,2.975c0,2.05,2.535,4.607,2.643,4.716
		c0.088,0.088,0.208,0.137,0.332,0.137s0.244-0.049,0.332-0.137c0.108-0.108,2.642-2.666,2.642-4.716
		C16.971,23.878,15.636,22.544,13.996,22.544z M13.996,29.217c-0.773-0.86-2.035-2.514-2.035-3.699c0-1.122,0.913-2.035,2.035-2.035
		s2.035,0.913,2.035,2.035C16.031,26.703,14.769,28.357,13.996,29.217z"/>
	<path fill="#FFC107" d="M13.996,24.109c-0.777,0-1.409,0.632-1.409,1.409s0.632,1.409,1.409,1.409s1.409-0.632,1.409-1.409
		S14.773,24.109,13.996,24.109z M13.996,25.988c-0.259,0-0.47-0.211-0.47-0.47c0-0.259,0.21-0.47,0.47-0.47
		c0.259,0,0.47,0.21,0.47,0.47C14.466,25.777,14.255,25.988,13.996,25.988z"/>
	<path fill="#FFC107" d="M20.185,0.036c-0.24-0.099-0.515,0.015-0.613,0.255l-2.279,5.522L8.914,3.597V0.47
		C8.914,0.21,8.704,0,8.444,0s-0.47,0.21-0.47,0.47v3.489c0,0.213,0.144,0.399,0.35,0.454l9.125,2.414
		c0.04,0.01,0.08,0.016,0.12,0.016c0.187,0,0.36-0.111,0.434-0.291l2.436-5.902C20.539,0.409,20.424,0.135,20.185,0.036z"/>
	<path fill="#FFC107" d="M6.06,18.712l-5.47-1.447c-0.25-0.066-0.508,0.083-0.574,0.334c-0.066,0.25,0.083,0.508,0.334,0.574
		l5.12,1.354v3.298c0,0.259,0.21,0.47,0.47,0.47s0.47-0.21,0.47-0.47v-3.66C6.409,18.953,6.266,18.767,6.06,18.712z"/>
	<path fill="#FFC107" d="M5.939,0C5.68,0,5.47,0.21,5.47,0.47v2.216L0.59,1.395c-0.25-0.066-0.508,0.083-0.574,0.334
		C-0.051,1.98,0.099,2.237,0.35,2.303l5.47,1.447c0.04,0.01,0.08,0.016,0.12,0.016c0.103,0,0.204-0.034,0.287-0.098
		c0.116-0.089,0.183-0.227,0.183-0.372V0.47C6.409,0.21,6.199,0,5.939,0z"/>
	<path fill="#FFC107" d="M5.939,24.61c-0.259,0-0.47,0.21-0.47,0.47v6.45c0,0.259,0.21,0.47,0.47,0.47s0.47-0.21,0.47-0.47v-6.45
		C6.409,24.821,6.199,24.61,5.939,24.61z"/>
	<path fill="#FFC107" d="M6.06,5.433L0.59,3.986C0.339,3.92,0.082,4.069,0.016,4.32C-0.051,4.571,0.099,4.828,0.35,4.894l5.12,1.354
		v9.717l-4.88-1.291c-0.25-0.066-0.508,0.083-0.574,0.334c-0.066,0.251,0.083,0.508,0.334,0.574l5.47,1.447
		c0.04,0.01,0.08,0.016,0.12,0.016c0.103,0,0.204-0.034,0.287-0.098c0.116-0.089,0.183-0.226,0.183-0.372V5.887
		C6.409,5.674,6.266,5.487,6.06,5.433z"/>
	<path fill="#FFC107" d="M31.709,4.28c-0.24-0.099-0.515,0.015-0.613,0.255l-1.834,4.444l-1.805-0.478
		c0.022-0.174,0.034-0.347,0.034-0.517c0-2.469-2.009-4.478-4.478-4.478c-0.379,0-0.748,0.048-1.101,0.137l1.236-2.995
		c0.099-0.24-0.016-0.515-0.255-0.613c-0.24-0.099-0.514,0.015-0.613,0.255l-1.598,3.873c-1.287,0.788-2.147,2.206-2.147,3.821
		c0,0.251,0.025,0.507,0.071,0.767L8.564,6.095C8.424,6.058,8.273,6.088,8.158,6.177C8.042,6.266,7.975,6.404,7.975,6.549v2.379
		c-0.59,0.544-0.961,1.323-0.961,2.187c0,0.854,0.44,1.796,0.961,2.612v3.51c0,0.213,0.144,0.399,0.35,0.454l16.155,4.272
		c0.04,0.011,0.08,0.016,0.12,0.016c0.186,0,0.36-0.111,0.434-0.291l3.977-9.636c0.052-0.125,0.047-0.267-0.013-0.388
		c-0.061-0.121-0.17-0.21-0.301-0.245l-2.041-0.54c0.246-0.48,0.455-0.972,0.602-1.46l2.162,0.572
		c0.04,0.011,0.081,0.016,0.121,0.016c0.186,0,0.36-0.111,0.434-0.291l1.991-4.824C32.063,4.653,31.949,4.379,31.709,4.28z
		 M23.014,4.446c1.951,0,3.538,1.587,3.538,3.538c0,2.286-2.6,5.313-3.538,6.332c-0.938-1.018-3.538-4.045-3.538-6.332
		C19.476,6.034,21.063,4.446,23.014,4.446z M7.953,11.116c0-1.123,0.913-2.035,2.035-2.035s2.035,0.913,2.035,2.035
		c0,1.185-1.262,2.838-2.035,3.699C9.215,13.954,7.953,12.3,7.953,11.116z M27.937,12.19l-3.615,8.761L8.914,16.876v-1.871
		c0.396,0.477,0.706,0.79,0.742,0.826c0.088,0.088,0.208,0.138,0.332,0.138s0.244-0.049,0.332-0.138
		c0.108-0.108,2.643-2.666,2.643-4.715c0-1.64-1.334-2.975-2.975-2.975c-0.379,0-0.741,0.072-1.074,0.202V7.159l9.982,2.64
		c0.982,2.703,3.647,5.393,3.786,5.531c0.088,0.088,0.207,0.138,0.332,0.138c0.125,0,0.244-0.05,0.333-0.138
		c0.104-0.104,1.66-1.674,2.834-3.604L27.937,12.19z"/>
	<path fill="#FFC107" d="M31.65,25.48l-5.452-1.442c-0.228-0.06-0.464,0.058-0.554,0.275l-2.904,7.038
		c-0.099,0.24,0.015,0.514,0.255,0.613C23.054,31.989,23.114,32,23.174,32c0.185,0,0.359-0.109,0.434-0.291l2.748-6.658l5.055,1.337
		c0.251,0.067,0.508-0.083,0.574-0.334C32.05,25.804,31.901,25.547,31.65,25.48z"/>
	<path fill="#FFC107" d="M31.65,22.89l-3.97-1.05l3.772-9.141c0.099-0.24-0.015-0.515-0.255-0.613
		c-0.24-0.099-0.514,0.015-0.613,0.255l-3.977,9.637c-0.052,0.125-0.047,0.267,0.013,0.388c0.061,0.121,0.17,0.211,0.301,0.245
		l4.488,1.187c0.041,0.011,0.081,0.016,0.121,0.016c0.208,0,0.398-0.139,0.454-0.35C32.05,23.213,31.901,22.956,31.65,22.89z"/>
	<path fill="#FFC107" d="M24.056,23.638c-0.06-0.121-0.169-0.21-0.301-0.245l-15.19-4.018c-0.141-0.037-0.291-0.007-0.407,0.082
		c-0.115,0.089-0.183,0.227-0.183,0.372V31.53c0,0.259,0.21,0.47,0.47,0.47s0.47-0.21,0.47-0.47V20.438l14.082,3.725l-2.966,7.188
		c-0.099,0.24,0.015,0.514,0.255,0.613C20.344,31.988,20.404,32,20.464,32c0.184,0,0.359-0.109,0.434-0.291l3.171-7.684
		C24.121,23.9,24.116,23.759,24.056,23.638z"/>
	<path fill="#FFC107" d="M9.988,9.707c-0.777,0-1.409,0.632-1.409,1.409c0,0.777,0.632,1.409,1.409,1.409s1.409-0.632,1.409-1.409
		C11.397,10.338,10.765,9.707,9.988,9.707z M9.988,11.585c-0.259,0-0.47-0.21-0.47-0.469c0-0.259,0.211-0.47,0.47-0.47
		s0.47,0.21,0.47,0.47C10.458,11.375,10.247,11.585,9.988,11.585z"/>
</g>
</svg>
