<?xml version="1.0" encoding="utf-8"?>
<!-- Generator: Adobe Illustrator 16.0.0, SVG Export Plug-In . SVG Version: 6.00 Build 0)  -->
<!DOCTYPE svg PUBLIC "-//W3C//DTD SVG 1.1//EN" "http://www.w3.org/Graphics/SVG/1.1/DTD/svg11.dtd">
<svg version="1.1" id="Layer_1" xmlns="http://www.w3.org/2000/svg" xmlns:xlink="http://www.w3.org/1999/xlink" x="0px" y="0px"
	 width="32px" height="32px" viewBox="0 0 32 32" enable-background="new 0 0 32 32" xml:space="preserve">
<path d="M26.254,13.406v8.001H5.746v-8.001c0-0.276-0.224-0.5-0.5-0.5H2.969c-0.276,0-0.5,0.224-0.5,0.5V31.5
	c0,0.276,0.224,0.5,0.5,0.5h26.062c0.275,0,0.5-0.224,0.5-0.5V13.406c0-0.276-0.225-0.5-0.5-0.5h-2.277
	C26.479,12.906,26.254,13.13,26.254,13.406z M3.407,31.063v-6.836h11.515c0.276,0,0.5-0.21,0.5-0.469s-0.224-0.469-0.5-0.469H3.407
	v-9.445h1.402v8.001c0,0.276,0.224,0.5,0.5,0.5h21.383c0.276,0,0.5-0.224,0.5-0.5v-8.001h1.402v17.219H3.407z"/>
<path d="M22.179,15.241h2.794c0.276,0,0.5,0.209,0.5,0.469c0,0.259-0.224,0.469-0.5,0.469h-2.794c-0.276,0-0.5-0.21-0.5-0.469
	C21.679,15.451,21.902,15.241,22.179,15.241z"/>
<path d="M7.027,13.853h1.472c0.276,0,0.5,0.21,0.5,0.469s-0.224,0.469-0.5,0.469H7.027c-0.276,0-0.5-0.21-0.5-0.469
	S6.751,13.853,7.027,13.853z"/>
<path d="M7.027,15.241h1.472c0.276,0,0.5,0.209,0.5,0.469c0,0.259-0.224,0.469-0.5,0.469H7.027c-0.276,0-0.5-0.21-0.5-0.469
	C6.527,15.451,6.751,15.241,7.027,15.241z"/>
<path d="M12.54,19.768h2.14c0,0,0,0.185,0,0.413c0,0.228,0.224,0.413,0.5,0.413h2.578c0.275,0,0.5-0.186,0.5-0.413v-0.413h2.14
	c0.276,0,0.5-0.225,0.5-0.5V14.79h4.075c0.276,0,0.5-0.21,0.5-0.469s-0.224-0.469-0.5-0.469h-4.075c0,0,0-0.175,0-0.391
	s-0.21-0.391-0.469-0.391s-0.469,0.224-0.469,0.5v5.259h-1.702v-2.353c0-0.276-0.21-0.5-0.469-0.5s-0.469,0.224-0.469,0.5v3.179
	h-1.703v-3.179c0-0.276-0.21-0.5-0.469-0.5s-0.469,0.224-0.469,0.5v2.353h-1.703v-2.353c0-0.276-0.209-0.5-0.469-0.5
	c-0.259,0-0.469,0.224-0.469,0.5v1.305h-1.322V9.787l2.162-2.141h1.78c0.276,0,0.5-0.21,0.5-0.469s-0.224-0.469-0.5-0.469h-1.517
	V0.938h6.816V6.87c0,0.276,0.157,0.659,0.352,0.855l2.051,2.07v2.775c0,0.276,0.21,0.5,0.469,0.5s0.469-0.224,0.469-0.5V9.91
	c0-0.276-0.157-0.659-0.352-0.855l-2.051-2.071V0.5c0-0.276-0.224-0.5-0.5-0.5h-7.691c-0.276,0-0.5,0.224-0.5,0.5v6.494l-2.07,2.05
	C9.939,9.238,9.78,9.62,9.78,9.896v8.324c0,0.276,0.224,0.5,0.5,0.5h1.76v0.548C12.04,19.543,12.264,19.768,12.54,19.768z"/>
<path d="M27.5,25.003c0.259,0,0.469,0.21,0.469,0.469s-0.21,0.469-0.469,0.469c-0.26,0-0.469-0.21-0.469-0.469
	S27.24,25.003,27.5,25.003z"/>
<path d="M27.5,26.565c0.259,0,0.469,0.224,0.469,0.5v2.901c0,0.276-0.21,0.5-0.469,0.5c-0.26,0-0.469-0.224-0.469-0.5v-2.901
	C27.031,26.789,27.24,26.565,27.5,26.565z"/>
<path d="M27.5,23.44c0.259,0,0.469,0.21,0.469,0.469s-0.21,0.469-0.469,0.469c-0.26,0-0.469-0.21-0.469-0.469
	S27.24,23.44,27.5,23.44z"/>
<path d="M18.866,4.208c0.259,0,0.469,0.21,0.469,0.469c0,0.259-0.21,0.469-0.469,0.469s-0.469-0.209-0.469-0.469
	C18.397,4.418,18.607,4.208,18.866,4.208z"/>
<path d="M18.749,8.368l1.835,1.853c0.194,0.196,0.501,0.208,0.685,0.025s0.176-0.489-0.019-0.685l-1.915-1.934V6.271
	c0-0.276-0.21-0.5-0.469-0.5s-0.469,0.224-0.469,0.5v1.242C18.397,7.789,18.555,8.172,18.749,8.368z"/>
<path d="M18.866,2.646c0.259,0,0.469,0.21,0.469,0.469c0,0.259-0.21,0.469-0.469,0.469s-0.469-0.209-0.469-0.469
	C18.397,2.855,18.607,2.646,18.866,2.646z"/>
</svg>
