<?xml version="1.0" encoding="utf-8"?>
<!-- Generator: Adobe Illustrator 16.0.0, SVG Export Plug-In . SVG Version: 6.00 Build 0)  -->
<!DOCTYPE svg PUBLIC "-//W3C//DTD SVG 1.1//EN" "http://www.w3.org/Graphics/SVG/1.1/DTD/svg11.dtd">
<svg version="1.1" id="Layer_1" xmlns="http://www.w3.org/2000/svg" xmlns:xlink="http://www.w3.org/1999/xlink" x="0px" y="0px"
	 width="32px" height="32px" viewBox="0 0 32 32" enable-background="new 0 0 32 32" xml:space="preserve">
<path d="M18.646,15.353C18.494,15.2,18.275,15,18,15l0,0c-0.275,0-0.509,0.229-0.417,0.491c0.203,0.586,0.762,1.009,1.416,1.009
	c0.657,0,1.214-0.423,1.418-1.009C20.509,15.229,20.275,15,20,15l0,0c-0.276,0-0.493,0.2-0.646,0.353
	c-0.092,0.09-0.217,0.147-0.355,0.147C18.862,15.5,18.737,15.443,18.646,15.353z"/>
<path d="M31.5,17V9c0-0.276-0.224-0.5-0.501-0.5H28V8c0-0.276-0.224-0.5-0.5-0.5h-0.526c-0.277-3.902-3.742-7-7.975-7
	c-4.229,0-7.696,3.098-7.972,7H10.5C10.224,7.5,10,7.724,10,8V8.5H1C0.724,8.5,0.5,8.724,0.5,9v8c0,0.277,0.224,0.5,0.5,0.5h2v6
	c0,0.826,0.673,1.499,1.5,1.499H7V25.5C7,25.777,7.224,26,7.5,26h3v4.999c0,0.277,0.223,0.501,0.5,0.501h19.999
	c0.277,0,0.501-0.224,0.501-0.501v-4.498c0-4.413-3.59-8-8-8h-0.109l-0.25-1.001h7.858C31.276,17.5,31.5,17.276,31.5,17z
	 M18.501,28.501H17c-0.276,0-0.5,0.224-0.5,0.498l0,0c0,0.277,0.224,0.501,0.5,0.501h1.501v1.001h-5V19.58
	c0.329-0.047,0.661-0.08,1-0.08V20c0,2.313,1.753,4.22,4,4.471V25.5H17c-0.276,0-0.5,0.223-0.5,0.5l0,0
	c0,0.275,0.224,0.501,0.5,0.501h1.501V28.501z M10.628,19.5H8v-2h6.86l-0.25,1.001H14.5c-1.297,0-2.587,0.318-3.734,0.925
	L10.628,19.5z M12.046,13H11.75C11.336,13,11,12.663,11,12.25s0.336-0.75,0.75-0.75H12v0.812C12,12.545,12.018,12.774,12.046,13z
	 M24.999,10.5v1.812c0,1.531-0.775,2.905-2,3.855V16c0-1.654-1.344-3-2.999-3h-0.5v-0.5c0-0.276-0.224-0.5-0.501-0.5l0,0
	c-0.275,0-0.498,0.224-0.498,0.5V13H18c-1.654,0-3,1.346-3,3v0.168c-1.225-0.95-2-2.325-2-3.855V10.5H24.999z M26,12.313V11.5h0.251
	c0.413,0,0.748,0.336,0.748,0.75S26.664,13,26.251,13h-0.296C25.982,12.774,26,12.545,26,12.313z M18.999,17.5
	c-1.097,0-2.124-0.26-3.01-0.707L16,16c0-1.104,0.896-2,2-2h2c1.104,0,2,0.896,2,2v0.798C21.116,17.241,20.093,17.5,18.999,17.5z
	 M18.999,23.5c-1.354,0-2.529-0.775-3.11-1.903l0.522,0.521c0.335,0.334,0.774,0.515,1.237,0.515c0.095,0,0.193-0.006,0.289-0.022
	c0.426-0.068,0.797-0.283,1.063-0.601c0.268,0.317,0.64,0.532,1.064,0.601c0.096,0.017,0.193,0.022,0.289,0.022
	c0.461,0,0.9-0.18,1.237-0.515l0.521-0.521C21.53,22.725,20.354,23.5,18.999,23.5L18.999,23.5z M15.532,19.825l2.798,1.398
	c-0.113,0.215-0.313,0.361-0.553,0.399c-0.244,0.04-0.483-0.037-0.658-0.211L15.532,19.825z M22.468,19.825l-1.587,1.587
	c-0.175,0.174-0.415,0.251-0.658,0.211c-0.239-0.038-0.439-0.185-0.553-0.399L22.468,19.825z M18.999,20.441l-3.417-1.709
	l0.229-0.919c0.958,0.437,2.039,0.688,3.187,0.688c1.152,0,2.238-0.252,3.198-0.69l0.223,0.921L18.999,20.441z M30.501,11.5H30
	c-0.276,0-0.5,0.223-0.5,0.5l0,0c0,0.276,0.224,0.5,0.5,0.5h0.501v2H28c-0.277,0-0.5,0.223-0.5,0.5l0,0c0,0.276,0.223,0.5,0.5,0.5
	h2.501v1H24.14c0.731-0.703,1.285-1.554,1.588-2.5h0.523C27.216,14,28,13.215,28,12.25s-0.784-1.75-1.749-1.75H27.5
	c0.276,0,0.5-0.225,0.5-0.5V9.5h2.501V11.5z M25.46,5.5c0.281,0.623,0.454,1.296,0.512,2H23.5V7c0-0.826,0.673-1.5,1.499-1.5H25.46z
	 M24.896,4.511C23.566,4.567,22.501,5.657,22.501,7v0.5h-2V1.654C22.341,2.029,23.91,3.08,24.896,4.511z M19.5,1.523V7.5h-0.999
	V1.523C18.666,1.513,18.83,1.5,18.999,1.5C19.17,1.5,19.334,1.513,19.5,1.523z M17.5,1.654V7.5h-2V7
	c0-1.342-1.067-2.433-2.396-2.489C14.089,3.08,15.658,2.029,17.5,1.654z M12.54,5.5H13c0.827,0,1.5,0.673,1.5,1.5v0.5h-2.473
	C12.085,6.796,12.259,6.123,12.54,5.5z M11,8.5h15.999v1H11V8.5z M2,13.5c0.276,0,0.5-0.224,0.5-0.5l0,0c0-0.276-0.224-0.5-0.5-0.5
	H1.5v-3H10V10c0,0.276,0.224,0.5,0.5,0.5h1.249c-0.965,0-1.75,0.785-1.75,1.75S10.785,14,11.75,14h0.522
	c0.304,0.946,0.856,1.797,1.59,2.5H1.5v-3H2z M4.5,24C4.225,24,4,23.776,4,23.5v-6h3v2V20v4H4.5z M8,24.999v-4.498H10.5v4.498H8z
	 M11.5,20.177c0.325-0.154,0.66-0.272,1-0.376v10.7h-1V20.177z M26.501,30.501H25.5V19.794c0.345,0.105,0.679,0.237,1.001,0.392
	V30.501z M27.5,30.501V28h3.001v2.501H27.5z M30.501,26.501v0.498H27.5v-6.236C29.311,22.029,30.501,24.128,30.501,26.501z
	 M24.501,19.58v10.921H19.5V29.5h1.499c0.277,0,0.501-0.224,0.501-0.501l0,0c0-0.274-0.224-0.498-0.501-0.498H19.5v-2h1.499
	c0.277,0,0.501-0.226,0.501-0.501l0,0c0-0.277-0.224-0.5-0.501-0.5H19.5v-1.029c2.246-0.251,4-2.158,4-4.471v-0.5
	C23.841,19.5,24.173,19.533,24.501,19.58z"/>
<path d="M3,14.5H9.5c0.276,0,0.5,0.223,0.5,0.5l0,0c0,0.276-0.224,0.5-0.5,0.5H3c-0.275,0-0.5-0.224-0.5-0.5l0,0
	C2.5,14.724,2.724,14.5,3,14.5z"/>
<path d="M4,12.5h1c0.276,0,0.5,0.223,0.5,0.5l0,0c0,0.276-0.224,0.5-0.5,0.5H4c-0.275,0-0.5-0.224-0.5-0.5l0,0
	C3.5,12.724,3.724,12.5,4,12.5z"/>
<path d="M6.868,12.37C6.706,12.524,6.495,12.724,6.497,13l0,0c0.002,0.276,0.231,0.504,0.495,0.419C7.498,13.255,8,12.824,8,12
	c0-1.101-0.896-1.5-1.5-1.5H3c-0.275,0-0.5,0.223-0.5,0.5l0,0c0,0.276,0.224,0.5,0.5,0.5h3.495C6.725,11.505,7,11.597,7,12
	C7,12.177,6.947,12.294,6.868,12.37z"/>
<circle cx="15.5" cy="12" r="0.5"/>
<circle cx="22.501" cy="12" r="0.5"/>
</svg>
