<?xml version="1.0" encoding="utf-8"?>
<!-- Generator: Adobe Illustrator 16.0.0, SVG Export Plug-In . SVG Version: 6.00 Build 0)  -->
<!DOCTYPE svg PUBLIC "-//W3C//DTD SVG 1.1//EN" "http://www.w3.org/Graphics/SVG/1.1/DTD/svg11.dtd">
<svg version="1.1" id="Layer_1" xmlns="http://www.w3.org/2000/svg" xmlns:xlink="http://www.w3.org/1999/xlink" x="0px" y="0px"
	 width="32px" height="32px" viewBox="0 0 32 32" enable-background="new 0 0 32 32" xml:space="preserve">
<g>
	<path d="M30.608,10.049h-3.953V3.48c0-0.768-0.624-1.392-1.392-1.392h-3.409c-0.252,0-0.456,0.204-0.456,0.456S21.603,3,21.854,3
		h3.409c0.265,0,0.481,0.215,0.481,0.48v7.025v16.279c0,0.865,0.354,1.65,0.924,2.217H3.113c-1.214,0-2.203-0.988-2.203-2.203V3.48
		C0.911,3.215,1.126,3,1.391,3h17.635c0.251,0,0.456-0.204,0.456-0.456s-0.204-0.456-0.456-0.456H1.391C0.624,2.088,0,2.713,0,3.48
		v23.318c0,1.717,1.397,3.113,3.113,3.113h25.759c1.725,0,3.128-1.403,3.128-3.127V11.441C32,10.673,31.376,10.049,30.608,10.049z
		 M28.872,29.001c-1.222,0-2.217-0.995-2.217-2.217v-0.316h2.217c0.252,0,0.456-0.204,0.456-0.456s-0.204-0.456-0.456-0.456h-2.217
		V22.07h2.217c0.252,0,0.456-0.204,0.456-0.456c0-0.251-0.204-0.455-0.456-0.455h-2.217v-3.486h2.217
		c0.252,0,0.456-0.204,0.456-0.456s-0.204-0.456-0.456-0.456h-2.217V10.96h3.953c0.265,0,0.481,0.216,0.481,0.48v15.344l0,0
		C31.089,28.006,30.095,29.001,28.872,29.001z"/>
	<path d="M13.473,5.57H4.569c-0.672,0-1.219,0.547-1.219,1.219v5.935c0,0.672,0.547,1.219,1.219,1.219h8.904
		c0.672,0,1.219-0.547,1.219-1.219V6.789C14.692,6.117,14.145,5.57,13.473,5.57z M13.781,12.724c0,0.17-0.138,0.308-0.308,0.308
		H4.569c-0.17,0-0.308-0.138-0.308-0.308V6.789c0-0.17,0.138-0.308,0.308-0.308h8.904c0.17,0,0.308,0.138,0.308,0.308V12.724z"/>
	<path d="M22.938,7.436h-5.922c-0.251,0-0.455,0.204-0.455,0.456s0.204,0.456,0.455,0.456h5.922c0.251,0,0.456-0.204,0.456-0.456
		S23.19,7.436,22.938,7.436z"/>
	<path d="M22.938,11.167h-5.922c-0.251,0-0.455,0.204-0.455,0.456c0,0.251,0.204,0.455,0.455,0.455h5.922
		c0.251,0,0.456-0.204,0.456-0.455C23.394,11.37,23.19,11.167,22.938,11.167z"/>
	<path d="M22.938,16.762H9.731c-0.251,0-0.455,0.204-0.455,0.456s0.204,0.456,0.455,0.456h13.207c0.251,0,0.456-0.204,0.456-0.456
		S23.19,16.762,22.938,16.762z"/>
	<path d="M6.899,16.762H4.144c-0.251,0-0.456,0.204-0.456,0.456s0.204,0.456,0.456,0.456h2.755c0.251,0,0.456-0.204,0.456-0.456
		S7.15,16.762,6.899,16.762z"/>
	<path d="M22.938,21.16H4.144c-0.251,0-0.456,0.204-0.456,0.456s0.204,0.455,0.456,0.455h18.794c0.251,0,0.456-0.204,0.456-0.455
		S23.19,21.16,22.938,21.16z"/>
	<path d="M22.938,25.557H4.144c-0.251,0-0.456,0.204-0.456,0.456s0.204,0.456,0.456,0.456h18.794c0.251,0,0.456-0.204,0.456-0.456
		S23.19,25.557,22.938,25.557z"/>
</g>
</svg>
