<?xml version="1.0" encoding="utf-8"?>
<!-- Generator: Adobe Illustrator 16.0.0, SVG Export Plug-In . SVG Version: 6.00 Build 0)  -->
<!DOCTYPE svg PUBLIC "-//W3C//DTD SVG 1.1//EN" "http://www.w3.org/Graphics/SVG/1.1/DTD/svg11.dtd">
<svg version="1.1" id="Layer_1" xmlns="http://www.w3.org/2000/svg" xmlns:xlink="http://www.w3.org/1999/xlink" x="0px" y="0px"
	 width="32px" height="32px" viewBox="0 0 32 32" enable-background="new 0 0 32 32" xml:space="preserve">
<g>
	<path fill="#FFC107" d="M31.531,27.054h-1.034V10.99c0-0.535-0.435-0.97-0.97-0.97h-3.006c-0.535,0-0.97,0.435-0.97,0.97v4.008
		c0,0.259,0.21,0.469,0.469,0.469c0.259,0,0.469-0.209,0.469-0.469v-1.034h3.071v13.091h-3.071V17.002
		c0-0.259-0.209-0.469-0.469-0.469c-0.259,0-0.469,0.21-0.469,0.469v10.052h-3.07v-7.046c0-0.535-0.435-0.97-0.97-0.97h-3.006
		c-0.535,0-0.97,0.435-0.97,0.97v7.046h-3.07V17.002c0-0.535-0.435-0.97-0.97-0.97h-3.006c-0.535,0-0.97,0.435-0.97,0.97v4.008
		c0,0.259,0.21,0.469,0.469,0.469c0.259,0,0.469-0.21,0.469-0.469v-1.034h3.071v7.079h-3.071v-4.041
		c0-0.259-0.209-0.469-0.469-0.469c-0.259,0-0.469,0.21-0.469,0.469v4.041h-3.07v-3.539c0-0.535-0.435-0.97-0.97-0.97H2.473
		c-0.535,0-0.97,0.435-0.97,0.97v3.539H0.469C0.21,27.054,0,27.264,0,27.523s0.21,0.469,0.469,0.469h31.063
		c0.259,0,0.469-0.21,0.469-0.469S31.79,27.054,31.531,27.054z M26.489,13.026V10.99c0-0.018,0.015-0.032,0.032-0.032h3.006
		c0.018,0,0.032,0.015,0.032,0.032v2.036H26.489z M10.457,19.038v-2.036c0-0.018,0.015-0.032,0.032-0.032h3.006
		c0.018,0,0.032,0.014,0.032,0.032v2.036H10.457z M18.505,19.976h3.006c0.018,0,0.032,0.015,0.032,0.032v1.034h-3.071v-1.034
		C18.473,19.99,18.488,19.976,18.505,19.976L18.505,19.976z M18.473,21.979h3.071v5.075h-3.071V21.979z M2.473,23.483h3.006
		c0.018,0,0.032,0.014,0.032,0.032v1.034H2.441v-1.034C2.441,23.497,2.455,23.483,2.473,23.483z M2.441,25.487h3.071v1.567H2.441
		V25.487z"/>
	<path fill="#FFC107" d="M0.97,21.479c0.12,0,0.24-0.045,0.332-0.137l9.813-9.813c0.101-0.101,0.235-0.156,0.377-0.156
		c0.143,0,0.276,0.056,0.377,0.156l4.094,4.094c0.278,0.278,0.647,0.431,1.04,0.431c0.393,0,0.762-0.153,1.04-0.431l9.82-9.82
		L27.56,7.917c-0.037,0.256,0.142,0.494,0.398,0.53c0.022,0.003,0.045,0.005,0.067,0.005c0.229,0,0.43-0.169,0.463-0.403
		l0.501-3.507c0.021-0.146-0.028-0.293-0.133-0.398c-0.104-0.104-0.251-0.153-0.397-0.132l-3.507,0.501
		c-0.256,0.037-0.434,0.274-0.397,0.53s0.274,0.434,0.53,0.398l2.115-0.302l-9.82,9.82c-0.101,0.101-0.234,0.156-0.377,0.156
		s-0.276-0.056-0.377-0.156l-4.094-4.094c-0.278-0.278-0.647-0.431-1.04-0.431c-0.393,0-0.762,0.153-1.04,0.431l-9.813,9.813
		c-0.183,0.183-0.183,0.479,0,0.663C0.73,21.433,0.85,21.479,0.97,21.479L0.97,21.479z"/>
</g>
</svg>
