<?xml version="1.0" encoding="utf-8"?>
<!-- Generator: Adobe Illustrator 16.0.0, SVG Export Plug-In . SVG Version: 6.00 Build 0)  -->
<!DOCTYPE svg PUBLIC "-//W3C//DTD SVG 1.1//EN" "http://www.w3.org/Graphics/SVG/1.1/DTD/svg11.dtd">
<svg version="1.1" id="Layer_1" xmlns="http://www.w3.org/2000/svg" xmlns:xlink="http://www.w3.org/1999/xlink" x="0px" y="0px"
	 width="32px" height="32px" viewBox="0 0 32 32" enable-background="new 0 0 32 32" xml:space="preserve">
<g>
	<path d="M31,25.438c0.259,0,0.469,0.21,0.469,0.469s-0.21,0.469-0.469,0.469s-0.469-0.21-0.469-0.469S30.741,25.438,31,25.438z"/>
	<path d="M0.531,0.469v28.25c0,1.81,1.472,3.281,3.281,3.281h1.875c1.192,0,2.238-0.64,2.813-1.593C9.075,31.36,10.12,32,11.313,32
		h1.875c1.192,0,2.238-0.64,2.813-1.593C16.574,31.36,17.62,32,18.813,32h1.875c1.192,0,2.238-0.64,2.813-1.593
		C24.074,31.36,25.12,32,26.313,32h1.875c1.81,0,3.281-1.472,3.281-3.281v-0.938c0-0.259-0.21-0.469-0.469-0.469
		s-0.469,0.21-0.469,0.469v0.938c0,1.292-1.052,2.344-2.344,2.344h-1.875c-1.292,0-2.344-1.052-2.344-2.344v-5.625h0.469
		c1.192,0,2.238-0.64,2.813-1.593c0.574,0.953,1.62,1.593,2.813,1.593h0.469v0.938c0,0.259,0.21,0.469,0.469,0.469
		s0.469-0.21,0.469-0.469V0H1C0.741,0,0.531,0.21,0.531,0.469z M2.875,3.875c0.259,0,0.469-0.21,0.469-0.469
		s-0.21-0.469-0.469-0.469H1.469v-2h29.063v2H4.75c-0.259,0-0.469,0.21-0.469,0.469s0.21,0.469,0.469,0.469h3.281v7.031
		c0,1.292-1.051,2.344-2.344,2.344H3.813c-1.292,0-2.344-1.051-2.344-2.344V3.875H2.875z M15.063,22.156
		c-1.292,0-2.344-1.052-2.344-2.344v-5.625h0.469c1.192,0,2.238-0.64,2.813-1.593c0.574,0.954,1.62,1.593,2.813,1.593h0.469v5.625
		c0,1.292-1.052,2.344-2.344,2.344H15.063z M7.563,22.156c-1.292,0-2.344-1.052-2.344-2.344v-5.625h0.469
		c1.192,0,2.238-0.639,2.813-1.593c0.575,0.954,1.62,1.593,2.813,1.593h0.469v5.625c0,1.292-1.051,2.344-2.344,2.344H7.563z
		 M8.969,3.875h6.563v7.031c0,1.292-1.051,2.344-2.344,2.344h-1.875c-1.292,0-2.344-1.051-2.344-2.344V3.875z M18.813,13.25
		c-1.292,0-2.344-1.051-2.344-2.344V3.875h6.563v7.031c0,1.292-1.052,2.344-2.344,2.344H18.813z M3.813,14.188h0.469v5.625
		c0,1.292-1.051,2.344-2.344,2.344H1.469v-8.957C2.065,13.809,2.895,14.188,3.813,14.188z M5.688,31.063H3.813
		c-1.292,0-2.344-1.052-2.344-2.344v-5.625h0.469c1.192,0,2.238-0.64,2.813-1.593c0.575,0.953,1.62,1.593,2.813,1.593h0.469v5.625
		C8.031,30.011,6.98,31.063,5.688,31.063z M13.188,31.063h-1.875c-1.292,0-2.344-1.052-2.344-2.344v-5.625h0.469
		c1.192,0,2.238-0.64,2.813-1.593c0.575,0.953,1.62,1.593,2.813,1.593h0.469v5.625C15.531,30.011,14.48,31.063,13.188,31.063z
		 M23.031,28.719c0,1.292-1.052,2.344-2.344,2.344h-1.875c-1.292,0-2.344-1.052-2.344-2.344v-5.625h0.469
		c1.192,0,2.238-0.64,2.813-1.593c0.574,0.953,1.62,1.593,2.813,1.593h0.469V28.719z M24.438,22.156h-1.875
		c-1.292,0-2.344-1.052-2.344-2.344v-5.625h0.469c1.192,0,2.238-0.639,2.813-1.593c0.574,0.954,1.62,1.593,2.813,1.593h0.469v5.625
		C26.781,21.104,25.73,22.156,24.438,22.156z M30.531,22.156h-0.469c-1.292,0-2.344-1.052-2.344-2.344v-5.625h0.469
		c0.917,0,1.748-0.379,2.344-0.988V22.156z M28.188,13.25h-1.875c-1.292,0-2.344-1.051-2.344-2.344V3.875h6.563v7.031
		C30.531,12.199,29.48,13.25,28.188,13.25z"/>
	<path d="M29.125,6.688c0.259,0,0.469,0.21,0.469,0.469s-0.21,0.469-0.469,0.469s-0.469-0.21-0.469-0.469S28.866,6.688,29.125,6.688
		z"/>
	<path d="M10.375,15.125c0.259,0,0.469,0.21,0.469,0.469s-0.21,0.469-0.469,0.469s-0.469-0.21-0.469-0.469
		S10.116,15.125,10.375,15.125z"/>
	<path d="M29.125,4.813c0.259,0,0.469,0.21,0.469,0.469s-0.21,0.469-0.469,0.469s-0.469-0.21-0.469-0.469S28.866,4.813,29.125,4.813
		z"/>
</g>
</svg>
