<?xml version="1.0" encoding="utf-8"?>
<!-- Generator: Adobe Illustrator 16.0.0, SVG Export Plug-In . SVG Version: 6.00 Build 0)  -->
<!DOCTYPE svg PUBLIC "-//W3C//DTD SVG 1.1//EN" "http://www.w3.org/Graphics/SVG/1.1/DTD/svg11.dtd">
<svg version="1.1" id="Layer_1" xmlns="http://www.w3.org/2000/svg" xmlns:xlink="http://www.w3.org/1999/xlink" x="0px" y="0px"
	 width="32px" height="32px" viewBox="0 0 32 32" enable-background="new 0 0 32 32" xml:space="preserve">
<g>
	<path d="M30.5,23.001c0.276,0,0.5-0.224,0.5-0.5v-4c0-0.276-0.224-0.5-0.5-0.5h-7v-3h2c0.276,0,0.5-0.224,0.5-0.5v-4
		c0-0.276-0.224-0.5-0.5-0.5s-0.5,0.224-0.5,0.5v3.5h-5v-1.174l2.627-0.24c0.825-0.076,1.433-0.806,1.357-1.63
		c-0.02-0.216-0.086-0.425-0.194-0.613l-0.475-0.823c0.441-0.327,0.667-0.87,0.588-1.413l-0.191-1.326
		c-0.03-0.202,0.067-0.402,0.245-0.503l0.28-0.162c0.198,0.346,0.526,0.598,0.911,0.7c0.127,0.034,0.259,0.05,0.391,0.05
		c0.262,0,0.52-0.069,0.748-0.2l3.464-2l0,0c0.718-0.414,0.964-1.331,0.551-2.049c0,0,0-0.001-0.001-0.001l-0.5-0.866
		c-0.414-0.718-1.331-0.965-2.048-0.551c0,0-0.001,0.001-0.001,0.001l-3.465,2c-0.718,0.414-0.965,1.331-0.551,2.049
		c0,0,0,0.001,0,0.001l-0.28,0.161c-0.533,0.306-0.824,0.906-0.735,1.513l0.191,1.325c0.019,0.138-0.021,0.278-0.11,0.385
		l-0.45-0.78c-0.414-0.718-1.332-0.964-2.049-0.55c-0.188,0.109-0.351,0.257-0.476,0.434l-1.595,2.262H18v-3.5
		c0-0.276-0.224-0.5-0.5-0.5H14v-3.5c0-0.276-0.224-0.5-0.5-0.5h-2c-0.276,0-0.5,0.224-0.5,0.5c0,0.276,0.224,0.5,0.5,0.5H13v3
		H8.868C8.632,5.663,8.338,5.369,8,5.133V3.001h1.5c0.276,0,0.5-0.224,0.5-0.5c0-0.276-0.224-0.5-0.5-0.5h-8
		c-0.276,0-0.5,0.224-0.5,0.5v6c0,0.276,0.224,0.5,0.5,0.5S2,8.777,2,8.501v-3h2c0.276,0,0.5-0.224,0.5-0.5
		c0-0.276-0.224-0.5-0.5-0.5H2v-1.5h5v1.65c-0.324-0.099-0.661-0.149-1-0.15c-0.276,0-0.5,0.224-0.5,0.5c0,0.276,0.224,0.5,0.5,0.5
		c1.38,0.001,2.499,1.12,2.5,2.5v1.75c0.002,1.794,1.456,3.248,3.25,3.25c1.242,0.001,2.249,1.008,2.25,2.25v0.47
		c0,0.276,0.224,0.5,0.5,0.5s0.5-0.224,0.5-0.5v-0.47c0-0.084-0.006-0.167-0.013-0.25H16.5v3h-0.836
		c-0.14-0.218-0.26-0.448-0.358-0.687c-0.097-0.259-0.385-0.39-0.644-0.293s-0.39,0.385-0.293,0.643
		c0.003,0.008,0.006,0.016,0.009,0.023c0.798,2.006,2.742,3.32,4.901,3.313c2.088,0,3.78,1.693,3.78,3.78
		c0,0.249-0.025,0.497-0.074,0.741l-0.976,4.879c-0.055,0.271,0.12,0.535,0.39,0.59c0.033,0.007,0.066,0.01,0.1,0.01h3
		c0.276,0,0.5-0.224,0.5-0.5v-3.5h4v3h-2.5c-0.276,0-0.5,0.224-0.5,0.5c0,0.276,0.224,0.5,0.5,0.5h3c0.276,0,0.5-0.224,0.5-0.5v-4
		c0-0.276-0.224-0.5-0.5-0.5H29v-3H30.5z M24.786,4.068l3.464-2C28.326,2.023,28.412,2,28.5,2.001c0.044,0,0.088,0.005,0.13,0.017
		c0.128,0.035,0.237,0.119,0.303,0.233l0.5,0.866c0.066,0.115,0.084,0.251,0.05,0.379c-0.034,0.129-0.118,0.238-0.233,0.305l0,0
		l-3.464,2c-0.115,0.066-0.251,0.084-0.38,0.05c-0.128-0.034-0.237-0.118-0.303-0.233l-0.5-0.866
		C24.465,4.513,24.546,4.207,24.786,4.068C24.785,4.068,24.785,4.068,24.786,4.068z M30,22.001h-4v-3h4V22.001z M18.668,11.117
		l1.978-2.8c0.092-0.133,0.244-0.212,0.406-0.211h0.025c0.171,0.006,0.326,0.101,0.41,0.25l0.469,0.812l-0.866,0.5
		c-0.239,0.138-0.321,0.444-0.183,0.683s0.444,0.321,0.683,0.183l0.866-0.5l0.468,0.812c0.139,0.239,0.059,0.545-0.18,0.684
		c-0.063,0.037-0.134,0.06-0.208,0.066l0,0l-3.415,0.312c-0.275,0.025-0.518-0.178-0.543-0.453c-0.011-0.119,0.021-0.237,0.09-0.334
		V11.117z M17,7.001v3h-5v-3H17z M11,7.001v3H9.526C9.512,9.918,9.504,9.834,9.5,9.751v-1.75c-0.001-0.339-0.052-0.676-0.15-1H11z
		 M9.881,11.001H13v1.25c-0.396-0.166-0.821-0.25-1.25-0.25C10.999,12,10.298,11.625,9.881,11.001L9.881,11.001z M14.75,14.001
		c-0.173-0.411-0.428-0.782-0.75-1.09v-1.91h3.633c-0.226,0.791,0.233,1.615,1.023,1.84c0.112,0.032,0.227,0.05,0.343,0.056v1.104
		H14.75z M17.5,15.001h5v3h-5V15.001z M19,19.98c-0.904-0.056-1.766-0.399-2.461-0.979H19V19.98z M20,20.062v-1.061h5v3h-1.841
		c-0.06-0.084-0.117-0.17-0.183-0.25C22.228,20.838,21.167,20.236,20,20.062z M23.11,30.001l0.6-3H25v3H23.11z M28,26.001h-4.09
		l0.057-0.283c0.182-0.911,0.093-1.855-0.255-2.717H28V26.001z"/>
	<path d="M18.5,30.001h-17c-0.276,0-0.5,0.224-0.5,0.5c0,0.276,0.224,0.5,0.5,0.5h17c0.276,0,0.5-0.224,0.5-0.5
		C19,30.225,18.777,30.001,18.5,30.001z"/>
</g>
</svg>
