<?xml version="1.0" encoding="utf-8"?>
<!-- Generator: Adobe Illustrator 16.0.0, SVG Export Plug-In . SVG Version: 6.00 Build 0)  -->
<!DOCTYPE svg PUBLIC "-//W3C//DTD SVG 1.1//EN" "http://www.w3.org/Graphics/SVG/1.1/DTD/svg11.dtd">
<svg version="1.1" id="Layer_1" xmlns="http://www.w3.org/2000/svg" xmlns:xlink="http://www.w3.org/1999/xlink" x="0px" y="0px"
	 width="32px" height="32px" viewBox="0 0 32 32" enable-background="new 0 0 32 32" xml:space="preserve">
<g>
	<path d="M23.507,10.657h-5.328c-0.259,0-0.469,0.21-0.469,0.469v4.012c0,0.259,0.21,0.469,0.469,0.469h5.328
		c0.259,0,0.469-0.21,0.469-0.469v-4.012C23.976,10.867,23.766,10.657,23.507,10.657z M18.647,11.595h1.727v3.075h-1.727V11.595z
		 M23.038,14.669h-1.727v-3.075h1.727V14.669z"/>
	<path d="M19.651,9.679h2.383c0.362,0,0.656-0.295,0.656-0.657V8.834c0-1.019-0.828-1.848-1.848-1.848
		c-1.019,0-1.848,0.829-1.848,1.848v0.188C18.995,9.384,19.29,9.679,19.651,9.679L19.651,9.679z M20.843,7.924
		c0.471,0,0.859,0.359,0.906,0.818h-1.812C19.983,8.283,20.372,7.924,20.843,7.924z"/>
	<path d="M31.765,19.656l-3.651-2.094V9.651h0.565c0.432,0,0.782-0.351,0.782-0.782v-0.94c0-0.431-0.351-0.782-0.782-0.782h-0.158
		V6.331c0-0.169-0.091-0.325-0.237-0.408l-0.89-0.502l-1.238-2.583c-0.078-0.163-0.242-0.266-0.423-0.266h-3.38l-1.279-0.723
		c-0.143-0.081-0.317-0.081-0.461,0L19.333,2.57H8.807c-0.259,0-0.469,0.21-0.469,0.469s0.21,0.469,0.469,0.469h8.868l-4.272,2.415
		c-0.147,0.083-0.238,0.239-0.238,0.408l0,0.816H2.171l1.496-3.639h2.945c0.259,0,0.469-0.21,0.469-0.469S6.872,2.57,6.612,2.57
		h-3.26c-0.19,0-0.361,0.115-0.434,0.291L1.158,7.146H0.782C0.351,7.146,0,7.498,0,7.929v0.94C0,9.3,0.351,9.651,0.782,9.651h1.35
		v5.883l-1.02,0.589c-0.145,0.083-0.234,0.239-0.234,0.406l0,0.835H0.783C0.351,17.365,0,17.716,0,18.147v0.94
		c0,0.431,0.351,0.782,0.782,0.782h0.503v3.292c0,0.259,0.21,0.469,0.469,0.469c0.259,0,0.469-0.21,0.469-0.469V19.87h0.63v9.406
		h-0.63v-3.92c0-0.259-0.209-0.469-0.469-0.469c-0.259,0-0.469,0.21-0.469,0.469v4.075c0,0.431,0.351,0.782,0.782,0.782h28.61
		c0.432,0,0.782-0.352,0.782-0.782V21.75h0.071c0.259,0,0.469-0.209,0.469-0.469v-1.218C32,19.896,31.91,19.74,31.765,19.656
		L31.765,19.656z M27.176,17.365h-0.63v-3.125c0-0.259-0.21-0.469-0.469-0.469s-0.469,0.21-0.469,0.469v3.125H22.05
		c-0.26,0-0.469,0.21-0.469,0.469s0.209,0.469,0.469,0.469h5.47l3.543,2.032v0.478H15.638V19.87h0.44
		c0.431,0,0.782-0.352,0.782-0.782v-0.785h2.995c0.259,0,0.469-0.21,0.469-0.469s-0.21-0.469-0.469-0.469
		c-0.063,0.004-3.833-0.001-3.935,0c0-0.415,0-7.108,0-7.714h0.911c0.431,0,0.782-0.351,0.782-0.782v-0.94
		c0-0.431-0.352-0.782-0.782-0.782h-0.36l4.373-2.439l4.418,2.439h-0.219c-0.431,0-0.782,0.351-0.782,0.782v0.94
		c0,0.431,0.352,0.782,0.782,0.782h0.565v2.396c0,0.259,0.21,0.469,0.469,0.469s0.469-0.21,0.469-0.469V9.651h0.63V17.365
		L27.176,17.365z M26.327,26.142v-1.508h0.817v1.508H26.327z M24.571,26.142v-1.508h0.818v1.508H24.571z M12.849,18.933v-0.63h3.075
		v0.63H12.849z M14.983,9.651v5.978l-0.63-0.355V9.651H14.983z M27.145,21.75v1.946h-0.817V21.75H27.145z M25.39,23.696
		c-0.598,0-1.786,0-2.386,0V21.75h2.386V23.696z M22.066,26.142H20.12V21.75h1.946V26.142z M19.183,26.142h-1.945V21.75h1.945
		V26.142z M16.299,23.696h-0.661V21.75h0.661V23.696z M15.638,24.634h0.661v4.643h-0.661V24.634z M17.237,27.079h4.829v0.63h-4.829
		V27.079z M23.004,24.634h0.63v4.643h-0.63C23.004,29.276,23.004,25.509,23.004,24.634z M28.082,24.634h0.811v1.508h-0.811V24.634z
		 M28.893,23.696h-0.811V21.75h0.811V23.696z M28.523,8.714h-3.325v-0.63h3.325V8.714z M25.438,3.508l0.53,1.106l-1.956-1.106
		H25.438z M14.103,6.604l6.74-3.81l6.74,3.81v0.543h-0.382l-6.132-3.386c-0.142-0.078-0.313-0.078-0.455,0.001l-6.068,3.385h-0.443
		L14.103,6.604z M0.938,8.084h15.737v0.63H0.938V8.084z M3.069,9.651h10.346v5.094l-1.883-1.063v-2.542
		c0-0.259-0.21-0.469-0.469-0.469H5.735c-0.259,0-0.469,0.21-0.469,0.469v2.582l-2.197,1.269V9.651z M7.93,12.184l-1.727,0.998
		V11.61H7.93V12.184z M8.868,11.61h1.727v1.544l-1.727-0.974V11.61z M1.815,16.8l6.586-3.806l6.581,3.711v0.66h-0.409l-5.945-3.341
		c-0.144-0.081-0.32-0.08-0.463,0.002l-5.818,3.339H1.816L1.815,16.8z M0.938,18.303h3.2v0.63h-3.2V18.303z M4.293,19.87
		c0.431,0,0.782-0.352,0.782-0.782v-0.94c0-0.432-0.351-0.782-0.782-0.782H4.231l4.17-2.394l4.262,2.395
		c-0.417,0.017-0.752,0.359-0.752,0.781v0.94c0,0.431,0.351,0.782,0.782,0.782h0.44v9.406h-1.241v-1.256
		c0-0.259-0.21-0.469-0.469-0.469H5.155c-0.259,0-0.469,0.21-0.469,0.469v1.256H3.79V19.87H4.293L4.293,19.87z M7.714,28.489h1.152
		v0.787H7.714V28.489z M6.776,29.276H5.624v-0.787h1.152V29.276L6.776,29.276z M9.803,28.489h1.152v0.787H9.803V28.489z
		 M14.071,29.276V19.87h0.629v9.406H14.071z M22.066,29.276h-4.829v-0.63h4.829V29.276z M24.571,27.079h4.321v2.197h-4.321V27.079z
		 M30.522,29.276H29.83V21.75h0.692V29.276z"/>
	<path d="M7.302,19.87h2.382c0.362,0,0.657-0.295,0.657-0.657v-0.188c0-1.019-0.829-1.848-1.848-1.848s-1.848,0.829-1.848,1.848
		v0.188C6.646,19.575,6.94,19.87,7.302,19.87L7.302,19.87z M8.493,18.114c0.471,0,0.859,0.359,0.906,0.818H7.587
		C7.634,18.474,8.022,18.114,8.493,18.114L8.493,18.114z"/>
	<path d="M5.155,25.982h6.269c0.259,0,0.469-0.21,0.469-0.469v-3.762c0-0.259-0.21-0.469-0.469-0.469H5.155
		c-0.259,0-0.469,0.21-0.469,0.469v3.762C4.687,25.772,4.896,25.982,5.155,25.982L5.155,25.982z M7.714,25.045v-2.824h1.152v2.824
		H7.714z M10.956,25.045H9.803v-2.824h1.152V25.045z M5.624,22.221h1.152v2.824H5.624V22.221z"/>
</g>
</svg>
