<?xml version="1.0" encoding="utf-8"?>
<!-- Generator: Adobe Illustrator 16.0.0, SVG Export Plug-In . SVG Version: 6.00 Build 0)  -->
<!DOCTYPE svg PUBLIC "-//W3C//DTD SVG 1.1//EN" "http://www.w3.org/Graphics/SVG/1.1/DTD/svg11.dtd">
<svg version="1.1" id="Layer_1" xmlns="http://www.w3.org/2000/svg" xmlns:xlink="http://www.w3.org/1999/xlink" x="0px" y="0px"
	 width="32px" height="32px" viewBox="0 0 32 32" enable-background="new 0 0 32 32" xml:space="preserve">
<g>
	<path d="M30.582,5.823C31.365,5.823,32,5.187,32,4.405V2.698c0-0.782-0.636-1.418-1.418-1.418h-3.617
		c-0.262,0-0.475,0.213-0.475,0.476c0,0.262,0.213,0.475,0.475,0.475h3.617c0.258,0,0.468,0.21,0.468,0.468v1.707
		c0,0.258-0.21,0.467-0.468,0.467H1.418c-0.257,0-0.467-0.209-0.467-0.467V2.698c0-0.258,0.209-0.468,0.467-0.468h23.647
		c0.263,0,0.475-0.213,0.475-0.475c0-0.263-0.212-0.476-0.475-0.476H1.418C0.636,1.28,0,1.916,0,2.698v1.707
		c0,0.781,0.636,1.418,1.417,1.418h0.048v7.06H0.475C0.213,12.883,0,13.095,0,13.357s0.213,0.476,0.475,0.476h0.991v2.378
		C0.647,16.274,0,16.961,0,17.796s0.647,1.521,1.466,1.585v10.863c0,0.263,0.213,0.476,0.475,0.476h28.118
		c0.263,0,0.476-0.213,0.476-0.476V19.381C31.353,19.317,32,18.631,32,17.796s-0.647-1.521-1.466-1.585v-2.378h0.99
		c0.263,0,0.476-0.213,0.476-0.476s-0.213-0.475-0.476-0.475h-0.99v-7.06H30.582z M7.728,12.883H4.219V8.548h3.509V12.883z
		 M14.028,13.833v2.373H10.7v-2.373H14.028z M16.638,13.833v2.373h-1.66v-2.373H16.638z M21.097,12.883h-3.509V8.548h3.509V12.883z
		 M26.86,13.833v2.373h-3.326v-2.373H26.86z M22.582,16.206h-0.535v-2.373h0.535V16.206z M21.097,16.206h-1.841v-2.373h1.841V16.206
		z M18.305,13.833v2.373h-0.717v-2.373H18.305z M9.75,16.206H8.678v-2.373H9.75V16.206z M7.728,16.206H6.423v-2.373h1.305V16.206z
		 M5.473,13.833v2.373H4.219v-2.373H5.473z M3.269,16.206H2.417v-2.373h0.852V16.206z M7.728,29.769H4.219v-7.657h3.509V29.769z
		 M21.097,29.769h-3.509v-7.657h3.509V29.769z M31.05,17.796c0,0.353-0.287,0.64-0.64,0.64H6.898c-0.263,0-0.476,0.213-0.476,0.475
		c0,0.263,0.213,0.476,0.476,0.476h22.686v10.383h-7.536v-8.133c0-0.263-0.213-0.476-0.475-0.476h-4.46
		c-0.262,0-0.475,0.213-0.475,0.476v8.133h-7.96v-8.133c0-0.263-0.212-0.476-0.475-0.476H3.744c-0.263,0-0.475,0.213-0.475,0.476
		v8.133H2.417V19.386h2.58c0.263,0,0.476-0.213,0.476-0.476c0-0.262-0.213-0.475-0.476-0.475H1.59c-0.353,0-0.639-0.287-0.639-0.64
		s0.287-0.64,0.639-0.64h28.82C30.763,17.156,31.05,17.443,31.05,17.796z M29.583,16.206h-1.772v-2.373h1.772V16.206z
		 M22.047,12.883V8.072c0-0.262-0.213-0.475-0.475-0.475h-4.46c-0.262,0-0.475,0.213-0.475,0.475v4.811h-7.96V8.072
		c0-0.262-0.212-0.475-0.475-0.475H3.744c-0.263,0-0.475,0.213-0.475,0.475v4.811H2.417v-7.06h27.167v7.06H22.047z"/>
	<path d="M14.887,7.598h-4.459c-0.263,0-0.475,0.213-0.475,0.475v3.551c0,0.263,0.212,0.476,0.475,0.476h4.459
		c0.263,0,0.475-0.213,0.475-0.476V8.072C15.363,7.811,15.15,7.598,14.887,7.598z M14.412,11.148h-3.509V8.548h3.509V11.148z"/>
	<path d="M28.256,7.598h-4.459c-0.262,0-0.475,0.213-0.475,0.475v3.551c0,0.263,0.213,0.476,0.475,0.476h4.459
		c0.263,0,0.476-0.213,0.476-0.476V8.072C28.732,7.811,28.519,7.598,28.256,7.598z M27.781,11.148h-3.509V8.548h3.509V11.148z"/>
	<path d="M10.428,25.662h4.459c0.263,0,0.475-0.213,0.475-0.476v-3.551c0-0.263-0.212-0.476-0.475-0.476h-4.459
		c-0.263,0-0.475,0.213-0.475,0.476v3.551C9.953,25.449,10.166,25.662,10.428,25.662z M10.904,22.111h3.509v2.6h-3.509V22.111z"/>
	<path d="M23.797,25.662h4.459c0.263,0,0.476-0.213,0.476-0.476v-3.551c0-0.263-0.213-0.476-0.476-0.476h-4.459
		c-0.262,0-0.475,0.213-0.475,0.476v3.551C23.323,25.449,23.535,25.662,23.797,25.662z M24.273,22.111h3.509v2.6h-3.509V22.111z"/>
	<path d="M4.477,26.669c0.077,0.183,0.263,0.302,0.462,0.293c0.198-0.01,0.374-0.147,0.431-0.337
		c0.127-0.423-0.363-0.779-0.726-0.527C4.462,26.224,4.395,26.464,4.477,26.669z"/>
	<path d="M17.907,26.669c0.069,0.173,0.243,0.289,0.429,0.293c0.216,0.005,0.41-0.142,0.468-0.348
		c0.051-0.182-0.015-0.385-0.163-0.5c-0.167-0.131-0.402-0.135-0.573-0.012C17.891,26.229,17.823,26.469,17.907,26.669z"/>
</g>
</svg>
