<?xml version="1.0" encoding="utf-8"?>
<!-- Generator: Adobe Illustrator 16.0.0, SVG Export Plug-In . SVG Version: 6.00 Build 0)  -->
<!DOCTYPE svg PUBLIC "-//W3C//DTD SVG 1.1//EN" "http://www.w3.org/Graphics/SVG/1.1/DTD/svg11.dtd">
<svg version="1.1" id="instagram" focusable="false"
	 xmlns="http://www.w3.org/2000/svg" xmlns:xlink="http://www.w3.org/1999/xlink" x="0px" y="0px" width="24.004px"
	 height="24.001px" viewBox="3.999 4 24.004 24.001" enable-background="new 3.999 4 24.004 24.001" xml:space="preserve">
<path fill="#FFFFFF" d="M16.002,9.847c-3.406,0-6.153,2.748-6.153,6.153s2.747,6.152,6.153,6.152c3.406,0,6.152-2.747,6.152-6.152
	S19.409,9.847,16.002,9.847z M16.002,20c-2.201,0-4-1.794-4-4s1.794-4,4-4c2.207,0,4,1.794,4,4S18.204,20,16.002,20z M23.843,9.595
	c0,0.798-0.643,1.437-1.435,1.437c-0.799,0-1.436-0.643-1.436-1.437c0-0.793,0.644-1.436,1.436-1.436S23.843,8.802,23.843,9.595z
	 M27.918,11.052c-0.091-1.923-0.529-3.625-1.939-5.029c-1.401-1.403-3.104-1.842-5.026-1.938c-1.979-0.113-7.921-0.113-9.902,0
	c-1.917,0.091-3.62,0.53-5.028,1.933C4.613,7.421,4.18,9.124,4.083,11.047c-0.112,1.981-0.112,7.92,0,9.902
	c0.091,1.923,0.53,3.625,1.939,5.029c1.408,1.401,3.106,1.842,5.028,1.938c1.981,0.113,7.923,0.113,9.902,0
	c1.922-0.091,3.625-0.53,5.026-1.938c1.403-1.403,1.842-3.106,1.939-5.029C28.031,18.967,28.031,13.033,27.918,11.052z
	 M25.357,23.074c-0.416,1.05-1.227,1.857-2.28,2.281c-1.58,0.627-5.329,0.481-7.075,0.481s-5.5,0.14-7.074-0.481
	c-1.05-0.418-1.858-1.228-2.281-2.281C6.021,21.495,6.165,17.746,6.165,16s-0.139-5.5,0.482-7.074
	c0.417-1.05,1.226-1.858,2.281-2.282c1.58-0.626,5.329-0.482,7.074-0.482c1.746,0,5.5-0.139,7.075,0.482
	c1.05,0.418,1.858,1.227,2.28,2.282c0.627,1.58,0.481,5.329,0.481,7.074S25.984,21.5,25.357,23.074z"/>
</svg>
