<?xml version="1.0" encoding="utf-8"?>
<!-- Generator: Adobe Illustrator 16.0.0, SVG Export Plug-In . SVG Version: 6.00 Build 0)  -->
<!DOCTYPE svg PUBLIC "-//W3C//DTD SVG 1.1//EN" "http://www.w3.org/Graphics/SVG/1.1/DTD/svg11.dtd">
<svg version="1.1" id="Layer_1" xmlns="http://www.w3.org/2000/svg" xmlns:xlink="http://www.w3.org/1999/xlink" x="0px" y="0px"
	 width="32px" height="32px" viewBox="0 0 32 32" enable-background="new 0 0 32 32" xml:space="preserve">
<g>
	<path d="M8.845,16.793H7.414c-0.088,0-0.174,0.025-0.249,0.071l-3.323,2.077v-1.68c0-0.259-0.21-0.469-0.469-0.469H1.732
		c-0.438,0-0.794-0.356-0.794-0.794V2.11c0-0.438,0.356-0.794,0.794-0.794h16.416c0.438,0,0.793,0.356,0.793,0.794v2.677
		c0,0.259,0.21,0.469,0.469,0.469s0.469-0.21,0.469-0.469V2.11c0-0.955-0.776-1.731-1.731-1.731H1.732C0.777,0.378,0,1.155,0,2.11
		V16c0,0.955,0.776,1.731,1.731,1.731h1.173v2.057c-0.011,0.357,0.42,0.596,0.717,0.397l3.927-2.454h1.296
		c0.259,0,0.469-0.21,0.469-0.469C9.314,17.003,9.104,16.793,8.845,16.793L8.845,16.793z"/>
	<path d="M22.394,19.022c-1.083,0.32-1.812,1.286-1.812,2.404v0.13c0,0.815,0.664,1.479,1.479,1.479
		c0.746,0,1.364-0.554,1.464-1.274c0.765-0.291,1.436-0.809,1.911-1.481c0.549-0.777,0.814-1.73,0.746-2.684
		c-0.069-0.964-0.481-1.88-1.161-2.579c-0.68-0.7-1.585-1.138-2.547-1.232c-2.219-0.219-4.199,1.334-4.506,3.537
		c-0.026,0.189-0.04,0.382-0.04,0.575c0,0.815,0.664,1.479,1.479,1.479s1.479-0.663,1.479-1.479c0-0.056,0.004-0.111,0.011-0.166
		c0.087-0.625,0.652-1.066,1.287-1.002c0.557,0.055,1.007,0.519,1.047,1.079C23.273,18.365,22.928,18.865,22.394,19.022
		L22.394,19.022z M24.168,17.739c-0.073-1.01-0.885-1.846-1.891-1.945c-0.072-0.007-0.143-0.01-0.213-0.01
		c-1.048,0-1.947,0.763-2.094,1.816c-0.014,0.097-0.021,0.196-0.021,0.295c0,0.298-0.243,0.542-0.542,0.542
		c-0.299,0-0.542-0.243-0.542-0.542c0-0.149,0.01-0.298,0.031-0.445c0.238-1.702,1.769-2.904,3.486-2.734
		c0.742,0.073,1.44,0.411,1.967,0.953c0.525,0.541,0.844,1.249,0.897,1.993c0.053,0.738-0.151,1.475-0.576,2.076
		c-0.414,0.586-1.02,1.02-1.704,1.223c-0.175,0.051-0.309,0.187-0.351,0.354c-0.009,0.038-0.014,0.077-0.014,0.116l0.001,0.126
		c0,0.298-0.243,0.542-0.542,0.542c-0.299,0-0.542-0.243-0.542-0.542v-0.13c0-0.698,0.458-1.303,1.14-1.504
		C23.619,19.638,24.24,18.741,24.168,17.739L24.168,17.739z"/>
	<path d="M22.061,27.075c0.815,0,1.479-0.664,1.479-1.479s-0.664-1.479-1.479-1.479s-1.479,0.664-1.479,1.479
		S21.246,27.075,22.061,27.075z M22.061,25.055c0.298,0,0.542,0.243,0.542,0.542s-0.243,0.542-0.542,0.542
		c-0.299,0-0.542-0.243-0.542-0.542S21.762,25.055,22.061,25.055z"/>
	<path d="M4.42,9.055c0,0.815,0.664,1.479,1.479,1.479S7.378,9.87,7.378,9.055S6.714,7.576,5.899,7.576S4.42,8.239,4.42,9.055z
		 M6.44,9.055c0,0.299-0.243,0.542-0.542,0.542c-0.299,0-0.542-0.243-0.542-0.542c0-0.298,0.243-0.542,0.542-0.542
		C6.197,8.513,6.44,8.756,6.44,9.055z"/>
	<path d="M11.418,9.055c0-0.815-0.664-1.479-1.479-1.479S8.46,8.239,8.46,9.055s0.664,1.479,1.479,1.479S11.418,9.87,11.418,9.055z
		 M9.939,9.596c-0.298,0-0.542-0.243-0.542-0.542c0-0.298,0.243-0.542,0.542-0.542s0.542,0.243,0.542,0.542
		C10.481,9.354,10.238,9.596,9.939,9.596z"/>
	<path d="M12.501,9.055c0,0.815,0.663,1.479,1.479,1.479s1.479-0.664,1.479-1.479s-0.664-1.479-1.479-1.479
		S12.501,8.239,12.501,9.055z M14.521,9.055c0,0.299-0.243,0.542-0.542,0.542c-0.298,0-0.542-0.243-0.542-0.542
		c0-0.298,0.243-0.542,0.542-0.542C14.279,8.513,14.521,8.756,14.521,9.055z"/>
	<path d="M30.269,11.743H19.878V6.975c0-0.259-0.21-0.469-0.469-0.469s-0.469,0.21-0.469,0.469v4.768h-5.087
		c-0.955,0-1.731,0.777-1.731,1.731v3.319h-1.09c-0.259,0-0.469,0.21-0.469,0.469s0.21,0.469,0.469,0.469h1.09v9.633
		c0,0.955,0.776,1.731,1.731,1.731h7.114c0.259,0,0.469-0.21,0.469-0.469s-0.209-0.469-0.469-0.469h-7.114
		c-0.438,0-0.793-0.356-0.793-0.793v-13.89c0-0.438,0.356-0.794,0.793-0.794h16.416c0.438,0,0.794,0.356,0.794,0.794v13.89
		c0,0.438-0.356,0.793-0.794,0.793h-1.642c-0.259,0-0.469,0.21-0.469,0.469v1.68l-3.324-2.078c-0.074-0.046-0.161-0.071-0.248-0.071
		h-1.432c-0.259,0-0.469,0.21-0.469,0.469s0.21,0.469,0.469,0.469h1.297l3.927,2.455c0.297,0.199,0.729-0.041,0.717-0.397v-2.057
		h1.173c0.955,0,1.731-0.776,1.731-1.731v-13.89C32,12.52,31.223,11.743,30.269,11.743L30.269,11.743z"/>
</g>
</svg>
