<?xml version="1.0" encoding="utf-8"?>
<!-- Generator: Adobe Illustrator 16.0.0, SVG Export Plug-In . SVG Version: 6.00 Build 0)  -->
<!DOCTYPE svg PUBLIC "-//W3C//DTD SVG 1.1//EN" "http://www.w3.org/Graphics/SVG/1.1/DTD/svg11.dtd">
<svg version="1.1" id="Layer_1" xmlns="http://www.w3.org/2000/svg" xmlns:xlink="http://www.w3.org/1999/xlink" x="0px" y="0px"
	 width="32px" height="32px" viewBox="0 0 32 32" enable-background="new 0 0 32 32" xml:space="preserve">
<g>
	<path d="M6.5,9.5h8.064l3.106,3.106c0.094,0.094,0.221,0.146,0.354,0.146c0.046,0,0.091-0.006,0.135-0.019
		c0.173-0.049,0.307-0.188,0.35-0.364l0.694-2.87h4.522l-2.026,3.508c-0.026,0.047-0.045,0.097-0.056,0.15l-0.634,3.1
		c-0.055,0.271,0.12,0.534,0.391,0.589c0.153,0.031,0.313-0.012,0.43-0.115l2.366-2.1c0.04-0.036,0.074-0.078,0.1-0.124L27.19,9.5
		h1.81v8.961c0,0.276,0.224,0.5,0.5,0.5c0.276,0,0.5-0.224,0.5-0.5V9c0-0.276-0.224-0.5-0.5-0.5h-1.732l3.032-5.25
		c0.415-0.718,0.168-1.636-0.55-2.05s-1.636-0.168-2.05,0.55l0,0l-1.737,3.011c-0.14,0.238-0.06,0.544,0.179,0.684
		s0.544,0.06,0.684-0.178c0.001-0.002,0.002-0.004,0.003-0.006l0.988-1.71l0.866,0.5l-5.5,9.525l-0.865-0.5l3.512-6.083
		c0.137-0.24,0.052-0.545-0.188-0.682c-0.238-0.135-0.54-0.054-0.678,0.182L24.303,8.5h-4.859l1.541-6.382
		c0.065-0.269-0.1-0.539-0.369-0.604c-0.077-0.019-0.157-0.019-0.234,0l-3.975,0.959c-0.268,0.069-0.429,0.341-0.36,0.609
		c0.067,0.262,0.331,0.422,0.594,0.363l3.18-0.768L17.75,11.27L11.231,4.75L14.7,3.916c0.268-0.065,0.433-0.335,0.368-0.604
		c-0.064-0.268-0.335-0.433-0.604-0.368l0,0L10.13,3.99C9.861,4.055,9.696,4.325,9.761,4.593c0.022,0.089,0.067,0.171,0.132,0.236
		L13.565,8.5H6.5C6.224,8.5,6,8.724,6,9C6,9.276,6.224,9.5,6.5,9.5z M29.749,2.068c0.239,0.138,0.321,0.444,0.183,0.683l-0.25,0.433
		l-0.866-0.5l0.25-0.433C29.204,2.012,29.51,1.93,29.749,2.068z M22.484,14.039l0.53,0.306l-0.724,0.643L22.484,14.039z"/>
	<path d="M30.736,20.56l-6.5-3.5c-0.148-0.08-0.326-0.08-0.474,0l-6.5,3.5C17.101,20.647,17,20.816,17,21v2.5
		c0,0.276,0.224,0.5,0.5,0.5c0.083,0,0.164-0.021,0.237-0.06L18,23.8v3.7H4.5C3.119,27.5,2,26.38,2,25c0-1.381,1.119-2.5,2.5-2.5
		C4.776,22.5,5,22.276,5,22V5.5C5,5.225,4.776,5,4.5,5C2.568,5.003,1.003,6.568,1,8.5V15c0,0.276,0.224,0.5,0.5,0.5
		C1.777,15.5,2,15.276,2,15V8.5C2.002,7.313,2.837,6.29,4,6.05v15.485c-0.76,0.11-1.463,0.467-2,1.017V17c0-0.276-0.224-0.5-0.5-0.5
		C1.224,16.5,1,16.724,1,17v8c0.002,1.932,1.568,3.498,3.5,3.5H18v2c0,0.276,0.224,0.5,0.5,0.5h11c0.276,0,0.5-0.224,0.5-0.5V28
		c0-0.276-0.224-0.5-0.5-0.5c-0.276,0-0.5,0.224-0.5,0.5v2h-5v-3.5c0-0.276-0.224-0.5-0.5-0.5h-3c-0.276,0-0.5,0.224-0.5,0.5V30h-1
		v-6.74l5-2.692l5,2.692V26c0,0.276,0.224,0.5,0.5,0.5c0.276,0,0.5-0.224,0.5-0.5v-2.2l0.263,0.142
		c0.243,0.131,0.546,0.04,0.677-0.203c0.039-0.073,0.06-0.155,0.06-0.238V21C30.999,20.816,30.898,20.647,30.736,20.56z M21,27h2v3
		h-2V27z M29.999,22.663l-5.763-3.103c-0.148-0.08-0.326-0.08-0.474,0L18,22.663V21.3l6-3.23l6,3.23V22.663z"/>
	<path d="M25.499,24.5v-2c0-0.276-0.224-0.5-0.5-0.5h-2c-0.276,0-0.5,0.224-0.5,0.5v2c0,0.276,0.224,0.5,0.5,0.5h2
		C25.276,25,25.499,24.776,25.499,24.5z M24.499,24h-1v-1h1V24z"/>
	<path d="M25.499,29h2c0.276,0,0.5-0.224,0.5-0.5v-2c0-0.276-0.224-0.5-0.5-0.5h-2c-0.276,0-0.5,0.224-0.5,0.5v2
		C24.999,28.776,25.223,29,25.499,29z M25.999,27h1v1h-1V27z"/>
	<path d="M16.5,19.5v-3.191l0.276,0.139c0.247,0.124,0.547,0.023,0.671-0.224C17.482,16.154,17.5,16.078,17.5,16v-2
		c0-0.189-0.107-0.362-0.276-0.447l-4-2c-0.141-0.07-0.306-0.07-0.447,0l-4,2C8.607,13.638,8.5,13.811,8.5,14v2
		c-0.002,0.276,0.221,0.501,0.497,0.503c0.079,0,0.156-0.018,0.226-0.053L9.5,16.309V19.5c0,0.276,0.224,0.5,0.5,0.5h6
		C16.276,20,16.5,19.776,16.5,19.5z M9.5,14.309l3.5-1.75l3.5,1.75v0.882l-3.276-1.639c-0.141-0.07-0.306-0.07-0.447,0L9.5,15.191
		V14.309z M12.5,19v-1h1v1H12.5z M14.5,19v-1.5c0-0.276-0.224-0.5-0.5-0.5h-2c-0.276,0-0.5,0.224-0.5,0.5V19h-1v-3.191l2.5-1.25
		l2.5,1.25V19H14.5z"/>
	<path d="M6,20.5C6,20.776,6.224,21,6.5,21h1C7.776,21,8,20.776,8,20.5C8,20.224,7.776,20,7.5,20v-8.5C7.776,11.5,8,11.276,8,11
		c0-0.276-0.224-0.5-0.5-0.5h-1C6.224,10.5,6,10.724,6,11c0,0.276,0.224,0.5,0.5,0.5V20C6.224,20,6,20.224,6,20.5z"/>
	<path d="M15.5,23c0.276,0,0.5-0.224,0.5-0.5v-1c0-0.276-0.224-0.5-0.5-0.5c-0.276,0-0.5,0.224-0.5,0.5h-5
		c0-0.276-0.224-0.5-0.5-0.5C9.224,21,9,21.224,9,21.5v1C9,22.776,9.224,23,9.5,23c0.276,0,0.5-0.224,0.5-0.5h5
		C15,22.776,15.224,23,15.5,23z"/>
	<path d="M13,26c0.276,0,0.5-0.224,0.5-0.5V24c0-0.276-0.224-0.5-0.5-0.5c-0.132,0-0.26,0.053-0.354,0.146L12,24.293l-0.646-0.646
		c-0.195-0.195-0.512-0.195-0.707,0C10.552,23.74,10.5,23.867,10.5,24v1.5c0,0.276,0.224,0.5,0.5,0.5c0.276,0,0.5-0.224,0.5-0.5
		v-0.293l0.146,0.146c0.195,0.195,0.512,0.195,0.707,0l0.146-0.146V25.5C12.5,25.776,12.724,26,13,26z"/>
	<path d="M13.7,5.447c-0.049,0.174,0,0.361,0.127,0.489l2.735,2.735c0.094,0.094,0.221,0.146,0.354,0.146
		c0.046,0,0.091-0.006,0.135-0.019c0.173-0.049,0.307-0.188,0.35-0.364l0.87-3.605c0.065-0.269-0.1-0.539-0.369-0.604
		c-0.077-0.019-0.157-0.019-0.234,0l-3.605,0.87C13.887,5.139,13.749,5.273,13.7,5.447z M17.109,5.391l-0.469,1.943l-1.475-1.475
		L17.109,5.391z"/>
</g>
</svg>
