<?xml version="1.0" encoding="utf-8"?>
<!-- Generator: Adobe Illustrator 16.0.0, SVG Export Plug-In . SVG Version: 6.00 Build 0)  -->
<!DOCTYPE svg PUBLIC "-//W3C//DTD SVG 1.1//EN" "http://www.w3.org/Graphics/SVG/1.1/DTD/svg11.dtd">
<svg version="1.1" id="vkontakte" focusable="false"
	 xmlns="http://www.w3.org/2000/svg" xmlns:xlink="http://www.w3.org/1999/xlink" x="0px" y="0px" width="23.998px"
	 height="14.258px" viewBox="4 8.871 23.998 14.258" enable-background="new 4 8.871 23.998 14.258" xml:space="preserve">
<path fill="#FFFFFF" d="M27.453,9.838c0.164-0.557,0-0.967-0.793-0.967h-2.625c-0.668,0-0.977,0.353-1.141,0.744
	c0,0-1.336,3.257-3.228,5.369c-0.608,0.61-0.892,0.807-1.226,0.807c-0.166,0-0.42-0.196-0.42-0.753v-5.2
	c0-0.668-0.188-0.967-0.738-0.967H13.16c-0.419,0-0.668,0.313-0.668,0.602c0,0.633,0.944,0.78,1.042,2.563v3.867
	c0,0.847-0.151,1.002-0.486,1.002c-0.891,0-3.056-3.271-4.339-7.013C8.451,9.165,8.197,8.871,7.524,8.871H4.9
	C4.151,8.871,4,9.224,4,9.615c0,0.695,0.891,4.148,4.147,8.711c2.17,3.113,5.227,4.803,8.006,4.803c1.671,0,1.875-0.374,1.875-1.021
	c0-2.977-0.149-3.256,0.688-3.256c0.39,0,1.058,0.195,2.615,1.696c1.78,1.782,2.076,2.58,3.073,2.58h2.623
	c0.75,0,1.127-0.374,0.91-1.114c-0.5-1.555-3.873-4.754-4.022-4.968c-0.39-0.499-0.274-0.722,0-1.167
	C23.92,15.875,27.123,11.366,27.453,9.838L27.453,9.838z"/>
</svg>
