<?xml version="1.0" encoding="utf-8"?>
<!-- Generator: Adobe Illustrator 16.0.0, SVG Export Plug-In . SVG Version: 6.00 Build 0)  -->
<!DOCTYPE svg PUBLIC "-//W3C//DTD SVG 1.1//EN" "http://www.w3.org/Graphics/SVG/1.1/DTD/svg11.dtd">
<svg version="1.1" id="Layer_1" xmlns="http://www.w3.org/2000/svg" xmlns:xlink="http://www.w3.org/1999/xlink" x="0px" y="0px"
	 width="32px" height="32px" viewBox="0 0 32 32" enable-background="new 0 0 32 32" xml:space="preserve">
<g>
	<path d="M30.594,29.188h-0.469v-5.862c0.15,0.053,0.309,0.081,0.468,0.081l0,0c0.504,0,0.972-0.271,1.222-0.709
		c0.187-0.326,0.234-0.705,0.136-1.067s-0.333-0.665-0.659-0.851l-6.562-3.75c-0.431-0.246-0.965-0.246-1.396,0l-0.24,0.137v-0.267
		c0.353-0.046,0.625-0.348,0.625-0.712v-1.375c0-0.396-0.322-0.719-0.719-0.719h-4.5c-0.396,0-0.719,0.322-0.719,0.719v1.375
		c0,0.364,0.273,0.666,0.625,0.712v2.945l-1.635,0.935c-0.326,0.186-0.56,0.488-0.659,0.851c-0.099,0.362-0.051,0.741,0.136,1.067
		c0.186,0.326,0.489,0.561,0.851,0.659c0.123,0.033,0.248,0.05,0.372,0.05c0.158,0,0.315-0.027,0.466-0.081v5.862h-3.875v-5.862
		c0.15,0.053,0.308,0.081,0.468,0.081l0,0c0.504,0,0.972-0.271,1.222-0.709c0.187-0.326,0.235-0.705,0.136-1.067
		c-0.099-0.362-0.333-0.665-0.659-0.851l-2-1.143c-0.225-0.129-0.511-0.051-0.64,0.174s-0.05,0.512,0.174,0.64l2,1.143
		c0.109,0.063,0.187,0.163,0.22,0.284c0.033,0.12,0.017,0.247-0.045,0.355c-0.083,0.146-0.239,0.236-0.408,0.236
		c-0.082,0-0.16-0.021-0.231-0.063l-6.097-3.483c-0.144-0.083-0.321-0.083-0.465,0l-6.098,3.484
		c-0.108,0.062-0.235,0.078-0.355,0.045S1.062,22.341,1,22.232s-0.078-0.235-0.045-0.355c0.033-0.121,0.111-0.222,0.22-0.284
		l6.563-3.75c0.143-0.082,0.321-0.082,0.465,0l2.655,1.518c0.225,0.128,0.511,0.05,0.64-0.175s0.05-0.511-0.175-0.64l-2.654-1.517
		c-0.431-0.246-0.965-0.246-1.396,0l-0.24,0.137v-0.267c0.352-0.046,0.625-0.348,0.625-0.712v-1.375
		c0-0.396-0.323-0.719-0.719-0.719h-4.5c-0.396,0-0.719,0.322-0.719,0.719v1.375c0,0.364,0.273,0.666,0.625,0.712v2.945L0.71,20.779
		c-0.326,0.186-0.561,0.488-0.659,0.851S0,22.371,0.186,22.697s0.489,0.561,0.851,0.659c0.123,0.033,0.248,0.05,0.372,0.05
		c0.159,0,0.316-0.027,0.466-0.081v5.862H1.407c-0.775,0-1.406,0.631-1.406,1.406S0.632,32,1.407,32h29.187
		C31.369,32,32,31.369,32,30.594S31.369,29.188,30.594,29.188L30.594,29.188z M2.657,15.031h4.063v0.938H2.657V15.031z
		 M3.282,16.906h2.813v0.796l-2.813,1.606V16.906z M18.719,15.031h4.063v0.938h-4.063V15.031z M19.344,16.906h2.813v0.796
		l-2.813,1.606V16.906z M17.345,22.452c-0.12-0.033-0.222-0.111-0.283-0.22c-0.063-0.108-0.078-0.235-0.045-0.355
		c0.032-0.121,0.11-0.222,0.22-0.284l6.562-3.75c0.072-0.041,0.152-0.062,0.232-0.062c0.081,0,0.161,0.021,0.233,0.062l6.562,3.75
		c0.108,0.063,0.187,0.163,0.22,0.284c0.033,0.12,0.017,0.247-0.045,0.355c-0.084,0.146-0.24,0.236-0.408,0.236
		c-0.082,0-0.159-0.021-0.231-0.063l-6.097-3.483c-0.145-0.083-0.321-0.083-0.466,0l-6.097,3.483
		C17.593,22.469,17.467,22.485,17.345,22.452L17.345,22.452z M18.875,22.816l5.156-2.947l5.156,2.947v6.371h-1.992v-0.783
		c0-0.26-0.21-0.469-0.469-0.469s-0.469,0.209-0.469,0.469v0.783H21.82v-5.313h4.438v2.375c0,0.259,0.21,0.469,0.469,0.469
		s0.469-0.21,0.469-0.469v-2.594c0-0.396-0.323-0.719-0.719-0.719h-4.875c-0.396,0-0.719,0.322-0.719,0.719v5.531h-2.008V22.816
		L18.875,22.816z M2.813,22.816l5.156-2.947l5.156,2.947v6.371h-1.993v-5.531c0-0.396-0.322-0.719-0.719-0.719H5.539
		c-0.396,0-0.719,0.322-0.719,0.719v5.531H2.813V22.816z M10.195,29.188H5.758v-5.313h4.437V29.188z M30.594,31.063H1.407
		c-0.258,0-0.469-0.21-0.469-0.469s0.21-0.469,0.469-0.469h29.187c0.259,0,0.469,0.21,0.469,0.469S30.852,31.063,30.594,31.063z"/>
	<path d="M21.142,1.563c0.26,0,0.469-0.21,0.469-0.469V0.469C21.611,0.21,21.402,0,21.142,0c-0.259,0-0.469,0.21-0.469,0.469v0.625
		C20.674,1.353,20.884,1.563,21.142,1.563z"/>
	<path d="M23.883,2.697c0.12,0,0.24-0.045,0.332-0.137l0.441-0.442c0.184-0.183,0.184-0.48,0-0.663
		c-0.183-0.183-0.479-0.183-0.663,0l-0.441,0.442c-0.184,0.183-0.184,0.479,0,0.663C23.642,2.652,23.762,2.697,23.883,2.697z"/>
	<path d="M24.549,4.969c0,0.259,0.21,0.469,0.469,0.469h0.625c0.259,0,0.469-0.21,0.469-0.469S25.901,4.5,25.642,4.5h-0.625
		C24.759,4.5,24.549,4.71,24.549,4.969z"/>
	<path d="M24.215,7.377c-0.184-0.183-0.48-0.183-0.663,0c-0.184,0.183-0.184,0.48,0,0.663l0.441,0.442
		c0.092,0.091,0.212,0.137,0.332,0.137c0.119,0,0.239-0.046,0.331-0.138c0.184-0.183,0.183-0.479,0-0.663L24.215,7.377z"/>
	<path d="M18.071,2.56c0.092,0.091,0.212,0.137,0.332,0.137c0.119,0,0.239-0.045,0.331-0.137c0.184-0.183,0.184-0.48,0-0.663
		l-0.441-0.442c-0.184-0.183-0.48-0.183-0.663,0c-0.184,0.183-0.184,0.48,0,0.663L18.071,2.56z"/>
	<path d="M7.056,9.104h15.75c0.192,0,0.374-0.084,0.499-0.231c0.125-0.146,0.179-0.339,0.148-0.529
		c-0.074-0.464-0.288-0.873-0.596-1.188c0.662-0.521,1.065-1.326,1.065-2.188c0-1.534-1.247-2.781-2.781-2.781
		c-1.533,0-2.781,1.248-2.781,2.781c0,0.046,0.002,0.092,0.005,0.139c-0.157,0.013-0.313,0.039-0.463,0.08
		c-0.188-1.63-1.578-2.901-3.257-2.901c-0.259,0-0.469,0.21-0.469,0.469c0,0.259,0.21,0.469,0.469,0.469
		c1.291,0,2.341,1.051,2.341,2.343c0,0.094-0.006,0.19-0.018,0.287c-0.022,0.182,0.063,0.36,0.22,0.456
		c0.156,0.096,0.354,0.092,0.506-0.01c0.26-0.173,0.563-0.265,0.877-0.265c0.729,0,1.36,0.493,1.537,1.198
		c0.033,0.135,0.126,0.249,0.251,0.309c0.126,0.061,0.271,0.063,0.398,0.004c0.165-0.075,0.341-0.113,0.522-0.113
		c0.507,0,0.948,0.294,1.148,0.733H7.433c0.201-0.439,0.642-0.733,1.148-0.733c0.068,0,0.138,0.006,0.208,0.018
		C8.912,7.471,9.038,7.442,9.14,7.37c0.101-0.073,0.169-0.182,0.19-0.305c0.147-0.89,0.909-1.535,1.812-1.535
		c0.195,0,0.389,0.031,0.575,0.092c0.132,0.043,0.276,0.026,0.395-0.047c0.118-0.073,0.197-0.196,0.216-0.333
		c0.071-0.508,0.301-0.969,0.667-1.333c0.184-0.183,0.184-0.479,0.001-0.663c-0.183-0.183-0.479-0.184-0.663-0.001
		c-0.383,0.383-0.667,0.858-0.823,1.373c-0.122-0.016-0.244-0.024-0.367-0.024c-1.219,0-2.268,0.779-2.635,1.905
		C7.453,6.532,6.577,7.298,6.409,8.345C6.378,8.534,6.432,8.727,6.557,8.874C6.682,9.02,6.864,9.104,7.056,9.104L7.056,9.104z
		 M20.851,6.538c-0.304-0.642-0.864-1.122-1.536-1.328C19.304,5.13,19.3,5.05,19.3,4.969c0-1.017,0.826-1.844,1.843-1.844
		s1.844,0.827,1.844,1.844c0,0.69-0.392,1.326-1.003,1.64c-0.221-0.074-0.457-0.114-0.701-0.114
		C21.135,6.495,20.992,6.509,20.851,6.538L20.851,6.538z"/>
</g>
</svg>
