<?xml version="1.0" encoding="utf-8"?>
<!-- Generator: Adobe Illustrator 16.0.0, SVG Export Plug-In . SVG Version: 6.00 Build 0)  -->
<!DOCTYPE svg PUBLIC "-//W3C//DTD SVG 1.1//EN" "http://www.w3.org/Graphics/SVG/1.1/DTD/svg11.dtd">
<svg version="1.1" id="Layer_1" xmlns="http://www.w3.org/2000/svg" xmlns:xlink="http://www.w3.org/1999/xlink" x="0px" y="0px"
	 width="32px" height="32px" viewBox="0 0 32 32" enable-background="new 0 0 32 32" xml:space="preserve">
<path d="M31.515,21.529l-5.559-2.343l5.56-2.345C31.81,16.717,32,16.43,32,16.11c0-0.32-0.19-0.607-0.485-0.731l-5.83-2.457
	l5.83-2.459C31.81,10.338,32,10.051,32,9.731S31.81,9.125,31.515,9l-14.81-6.24c-0.448-0.189-0.962-0.189-1.411,0L8.42,5.657
	C8.181,5.757,8.069,6.033,8.17,6.272s0.376,0.351,0.615,0.25l6.874-2.896c0.216-0.092,0.465-0.092,0.682,0l14.49,6.106l-14.49,6.113
	c-0.217,0.091-0.466,0.091-0.683,0L1.169,9.732l4.449-1.875c0.239-0.101,0.351-0.376,0.25-0.615
	c-0.101-0.239-0.376-0.351-0.615-0.25L0.485,9C0.19,9.125,0,9.412,0,9.732s0.19,0.606,0.485,0.731l5.83,2.459l-5.83,2.457
	C0.19,15.503,0,15.79,0,16.11c0,0.32,0.19,0.606,0.485,0.731l5.56,2.345l-5.559,2.343C0.19,21.653,0,21.94,0,22.261
	c0,0.319,0.19,0.606,0.485,0.73l14.809,6.248c0.224,0.095,0.465,0.142,0.706,0.142c0.241,0,0.482-0.047,0.706-0.142l14.809-6.248
	C31.81,22.867,32,22.58,32,22.261C32,21.94,31.81,21.653,31.515,21.529z M16.341,28.374c-0.217,0.091-0.466,0.091-0.683,0
	l-14.49-6.113l6.084-2.563l8.041,3.392c0.224,0.095,0.465,0.143,0.706,0.143c0.241,0,0.482-0.048,0.706-0.143l2.276-0.96
	c0.238-0.101,0.351-0.376,0.25-0.615s-0.376-0.351-0.615-0.25l-2.276,0.96c-0.217,0.092-0.466,0.092-0.683,0L1.169,16.11
	l6.355-2.678l7.77,3.277c0.224,0.095,0.465,0.143,0.706,0.143s0.482-0.048,0.706-0.143l7.771-3.277l6.354,2.678l-9.196,3.88
	c-0.238,0.101-0.351,0.376-0.25,0.615s0.377,0.351,0.615,0.25l2.747-1.158l6.084,2.563L16.341,28.374z"/>
</svg>
