<?xml version="1.0" encoding="utf-8"?>
<!-- Generator: Adobe Illustrator 16.0.0, SVG Export Plug-In . SVG Version: 6.00 Build 0)  -->
<!DOCTYPE svg PUBLIC "-//W3C//DTD SVG 1.1//EN" "http://www.w3.org/Graphics/SVG/1.1/DTD/svg11.dtd">
<svg version="1.1" id="whatsapp" focusable="false" xmlns="http://www.w3.org/2000/svg" xmlns:xlink="http://www.w3.org/1999/xlink"
	 x="0px" y="0px" width="24px" height="24px" viewBox="4 4 24 24" enable-background="new 4 4 24 24" xml:space="preserve">
<path fill="#FFFFFF" d="M24.404,7.487C22.161,5.237,19.171,4,15.995,4C9.438,4,4.102,9.336,4.102,15.893
	c0,2.093,0.547,4.141,1.586,5.946L4,28l6.305-1.655c1.736,0.948,3.691,1.446,5.684,1.446h0.005C22.546,27.791,28,22.456,28,15.898
	C28,12.721,26.65,9.737,24.404,7.487z M15.995,25.788c-1.778,0-3.52-0.478-5.036-1.377L10.6,24.195l-3.739,0.979l0.996-3.647
	l-0.235-0.375c-0.991-1.574-1.511-3.392-1.511-5.26c0-5.448,4.436-9.884,9.889-9.884c2.641,0,5.122,1.029,6.986,2.898
	c1.863,1.869,3.011,4.35,3.005,6.991C25.991,21.352,21.443,25.788,15.995,25.788z M21.416,18.384
	c-0.294-0.149-1.757-0.868-2.029-0.964c-0.273-0.102-0.473-0.15-0.67,0.15c-0.197,0.3-0.766,0.964-0.943,1.166
	c-0.172,0.199-0.349,0.226-0.643,0.076c-1.747-0.873-2.893-1.561-4.044-3.538c-0.306-0.525,0.305-0.488,0.873-1.623
	c0.096-0.198,0.048-0.37-0.027-0.52c-0.075-0.15-0.669-1.612-0.916-2.207c-0.241-0.579-0.487-0.498-0.67-0.509
	c-0.171-0.011-0.37-0.011-0.567-0.011c-0.198,0-0.52,0.075-0.793,0.37c-0.273,0.3-1.04,1.018-1.04,2.48s1.066,2.876,1.211,3.075
	c0.15,0.197,2.095,3.197,5.079,4.488c1.886,0.813,2.625,0.885,3.568,0.744c0.573-0.084,1.758-0.717,2.004-1.414
	c0.246-0.694,0.246-1.291,0.17-1.414C21.909,18.604,21.711,18.529,21.416,18.384z"/>
</svg>
