<?xml version="1.0" encoding="utf-8"?>
<!-- Generator: Adobe Illustrator 16.0.0, SVG Export Plug-In . SVG Version: 6.00 Build 0)  -->
<!DOCTYPE svg PUBLIC "-//W3C//DTD SVG 1.1//EN" "http://www.w3.org/Graphics/SVG/1.1/DTD/svg11.dtd">
<svg version="1.1" id="Layer_1" xmlns="http://www.w3.org/2000/svg" xmlns:xlink="http://www.w3.org/1999/xlink" x="0px" y="0px"
	 width="32px" height="32px" viewBox="0 0 32 32" enable-background="new 0 0 32 32" xml:space="preserve">
<g>
	<path d="M25.7,4.018C23.11,1.427,19.664,0,16,0S8.892,1.427,6.301,4.018c-2.591,2.591-4.019,6.036-4.019,9.7
		c0,6.002,8.416,14.326,12.035,17.626C14.797,31.781,15.399,32,16,32c0.603,0,1.204-0.219,1.684-0.656
		c3.618-3.301,12.034-11.624,12.034-17.626C29.718,10.053,28.291,6.608,25.7,4.018L25.7,4.018z M17.053,30.652
		c-0.6,0.547-1.505,0.547-2.105,0c-1.572-1.436-4.595-4.323-7.159-7.547c-3.032-3.811-4.569-6.969-4.569-9.388
		C3.219,6.67,8.952,0.936,16,0.936S28.782,6.67,28.782,13.717c0,2.419-1.538,5.578-4.57,9.388
		C21.649,26.329,18.626,29.217,17.053,30.652z"/>
	<path d="M18.258,22.775c-0.735,0.183-1.495,0.275-2.258,0.275c-3.646,0-6.812-2.103-8.346-5.159l3.156-2.615
		c0.199-0.165,0.228-0.459,0.063-0.659s-0.46-0.227-0.659-0.062L7.264,17c-0.385-1.022-0.597-2.128-0.597-3.283
		c0-5.146,4.188-9.333,9.333-9.333c2.517,0,4.876,0.987,6.645,2.779c0.182,0.184,0.478,0.186,0.661,0.004
		c0.185-0.181,0.187-0.478,0.005-0.662C21.365,4.534,18.77,3.448,16,3.448c-5.662,0-10.269,4.607-10.269,10.269
		c0,5.663,4.606,10.269,10.269,10.269c0.839,0,1.674-0.102,2.483-0.303c0.251-0.063,0.404-0.316,0.342-0.567
		S18.509,22.713,18.258,22.775L18.258,22.775z"/>
	<path d="M24.62,8.134c-0.141-0.217-0.431-0.278-0.647-0.138s-0.278,0.43-0.138,0.647c0.98,1.511,1.499,3.265,1.499,5.074
		c0,0.333-0.019,0.664-0.053,0.992l-2.521-2.015c-0.439-0.352-1.073-0.346-1.507,0.013l-2.33,1.931l-3.724-2.976
		c-0.439-0.352-1.073-0.346-1.507,0.013l-1.942,1.609c-0.199,0.165-0.227,0.46-0.063,0.659c0.165,0.199,0.46,0.227,0.659,0.062
		l1.943-1.609c0.093-0.078,0.229-0.079,0.325-0.003l4.018,3.211c0.002,0.001,0.003,0.002,0.004,0.003l4.759,3.803
		c-0.888,1.152-2.031,2.085-3.346,2.719c-0.233,0.112-0.331,0.393-0.219,0.625c0.081,0.167,0.248,0.265,0.422,0.265
		c0.068,0,0.138-0.015,0.203-0.046c1.716-0.828,3.166-2.114,4.196-3.722c1.058-1.65,1.617-3.564,1.617-5.534
		C26.27,11.728,25.699,9.797,24.62,8.134L24.62,8.134z M23.93,18.64l-4.261-3.405l2.182-1.806c0.094-0.078,0.23-0.079,0.325-0.003
		l2.931,2.342C24.879,16.78,24.484,17.751,23.93,18.64L23.93,18.64z"/>
	<path d="M17.051,9.542c0,1.035,0.842,1.877,1.877,1.877s1.877-0.842,1.877-1.877c0-1.035-0.842-1.876-1.877-1.876
		S17.051,8.507,17.051,9.542z M19.869,9.542c0,0.519-0.423,0.941-0.941,0.941s-0.94-0.422-0.94-0.941c0-0.519,0.422-0.94,0.94-0.94
		S19.869,9.023,19.869,9.542z"/>
</g>
</svg>
