<?xml version="1.0" encoding="utf-8"?>
<!-- Generator: Adobe Illustrator 16.0.0, SVG Export Plug-In . SVG Version: 6.00 Build 0)  -->
<!DOCTYPE svg PUBLIC "-//W3C//DTD SVG 1.1//EN" "http://www.w3.org/Graphics/SVG/1.1/DTD/svg11.dtd">
<svg version="1.1" id="Layer_1" xmlns="http://www.w3.org/2000/svg" xmlns:xlink="http://www.w3.org/1999/xlink" x="0px" y="0px"
	 width="32px" height="32px" viewBox="0 0 32 32" enable-background="new 0 0 32 32" xml:space="preserve">
<g>
	<path d="M14.899,7.548c-0.261,0-0.47-0.209-0.47-0.468s0.209-0.469,0.47-0.469h2.204c0.259,0,0.47,0.21,0.47,0.469
		s-0.211,0.468-0.47,0.468H14.899z"/>
	<path d="M12.753,9.554c-0.259,0-0.468-0.211-0.468-0.47s0.209-0.468,0.468-0.468h6.493c0.261,0,0.47,0.209,0.47,0.468
		s-0.209,0.47-0.47,0.47H12.753z"/>
	<path d="M25.65,13.561c0,0.259-0.211,0.47-0.47,0.47s-0.47-0.211-0.47-0.47V12.44h-2.47v4.367h2.47v-1.122
		c0-0.26,0.211-0.469,0.47-0.469s0.47,0.209,0.47,0.469v1.589c0,0.261-0.211,0.47-0.47,0.47h-3.407c-0.259,0-0.47-0.209-0.47-0.47
		V11.97c0-0.259,0.211-0.468,0.47-0.468h3.407c0.259,0,0.47,0.209,0.47,0.468V13.561z"/>
	<path d="M10.696,13.561c0,0.259-0.209,0.47-0.468,0.47s-0.47-0.211-0.47-0.47V12.44h-2.47v4.367h2.47v-1.122
		c0-0.26,0.211-0.469,0.47-0.469s0.468,0.209,0.468,0.469v1.589c0,0.261-0.209,0.47-0.468,0.47H6.821
		c-0.26,0-0.469-0.209-0.469-0.47V11.97c0-0.259,0.209-0.468,0.469-0.468h3.407c0.259,0,0.468,0.209,0.468,0.468V13.561z"/>
	<path d="M14.369,18.384c0-0.259,0.211-0.468,0.469-0.468c0.259,0,0.468,0.209,0.468,0.468v1.082c0,0.259-0.209,0.47-0.468,0.47
		c-0.258,0-0.469-0.211-0.469-0.47V18.384z"/>
	<path d="M17.162,13.586h-2.324c-0.258,0-0.469,0.211-0.469,0.47v2.324c0,0.259,0.211,0.469,0.469,0.469h2.324
		c0.259,0,0.47-0.21,0.47-0.469v-2.324C17.632,13.797,17.421,13.586,17.162,13.586z M16.694,15.911h-1.388v-1.387h1.388V15.911z"/>
	<path d="M31.938,10.292c-0.115-0.411-0.389-0.778-0.79-1.003l-6.233-3.501c-0.225-0.126-0.511-0.046-0.636,0.179
		c-0.128,0.227-0.047,0.512,0.179,0.638l6.232,3.501c0.176,0.099,0.296,0.258,0.348,0.439c0.05,0.181,0.032,0.381-0.067,0.559
		c-0.099,0.175-0.261,0.296-0.439,0.347c-0.181,0.049-0.381,0.032-0.558-0.067L16.235,3.668c-0.151-0.085-0.321-0.083-0.47,0
		C11.187,6.24,6.607,8.813,2.027,11.384C1.851,11.483,1.651,11.5,1.47,11.451c-0.181-0.052-0.342-0.172-0.441-0.347
		c-0.098-0.177-0.117-0.377-0.066-0.559c0.052-0.181,0.17-0.34,0.347-0.439l14.332-8.049c0.115-0.065,0.241-0.096,0.363-0.096
		c0.134,0.002,0.25,0.037,0.367,0.103l6.233,3.501c0.225,0.126,0.51,0.046,0.636-0.179c0.128-0.227,0.046-0.512-0.179-0.638
		l-6.233-3.501c-0.249-0.142-0.533-0.218-0.82-0.22c-0.282-0.002-0.565,0.067-0.826,0.213L0.854,9.29
		c-0.402,0.225-0.675,0.592-0.79,1.003c-0.117,0.411-0.076,0.866,0.149,1.269c0.227,0.402,0.593,0.675,1.004,0.79
		s0.867,0.075,1.269-0.15l1.341-0.753c0,5.792,0,11.582,0,17.373c0,0.259,0.209,0.468,0.468,0.468h2.339
		c0.258,0,0.469-0.209,0.469-0.468v-5.543h5.183v1.536v2.004v2.003v1.684c0,0.259,0.209,0.468,0.468,0.468
		c0.258,0,0.469-0.209,0.469-0.468v-1.214h5.556v1.214c0,0.259,0.209,0.468,0.468,0.468c0.261,0,0.47-0.209,0.47-0.468v-1.684
		v-2.003v-2.004v-1.536h5.183v5.543c0,0.259,0.209,0.468,0.469,0.468h2.337c0.261,0,0.47-0.209,0.47-0.468V11.448l1.342,0.753
		c0.401,0.225,0.855,0.266,1.267,0.15c0.413-0.115,0.779-0.388,1.005-0.79C32.012,11.159,32.053,10.704,31.938,10.292z
		 M6.164,28.352h-1.4v-5.074h1.4V28.352z M18.779,28.354h-5.556v-1.067h5.556V28.354z M18.779,26.35h-5.556v-1.068h5.556V26.35z
		 M18.779,24.344h-5.556v-1.066h5.556V24.344z M18.779,22.34h-5.556v-9.9h5.556V22.34z M19.716,22.34V11.97
		c0-0.259-0.209-0.468-0.47-0.468h-6.493c-0.259,0-0.468,0.209-0.468,0.468v10.37H4.764V10.921L16.001,4.61l11.236,6.311V22.34
		H19.716z M27.237,23.278v5.074h-1.401v-5.074H27.237L27.237,23.278L27.237,23.278z"/>
</g>
</svg>
