<?xml version="1.0" encoding="utf-8"?>
<!-- Generator: Adobe Illustrator 16.0.0, SVG Export Plug-In . SVG Version: 6.00 Build 0)  -->
<!DOCTYPE svg PUBLIC "-//W3C//DTD SVG 1.1//EN" "http://www.w3.org/Graphics/SVG/1.1/DTD/svg11.dtd">
<svg version="1.1" id="logo" xmlns="http://www.w3.org/2000/svg" xmlns:xlink="http://www.w3.org/1999/xlink" x="0px" y="0px"
	 width="151.662px" height="112px" viewBox="0 0 151.662 112" enable-background="new 0 0 151.662 112" xml:space="preserve">
<path fill="#FFC107" d="M149.496,15.482L52.722,73.547c-1.197,0.717-3.138,0.717-4.335,0L2.167,45.814
	C0.97,45.096,0,43.383,0,41.985v-10.11c0-1.397,0.97-1.945,2.167-1.227l46.219,27.73c1.197,0.718,3.138,0.718,4.335,0l96.774-58.063
	c1.193-0.718,2.166-0.17,2.166,1.227v10.111C151.662,13.051,150.688,14.764,149.496,15.482z"/>
<path fill="#FFC107" d="M149.496,53.397l-96.774,58.065c-1.197,0.716-3.138,0.716-4.335,0L2.167,83.727C0.97,83.012,0,81.298,0,79.9
	V69.79c0-1.397,0.97-1.944,2.167-1.229l46.219,27.734c1.197,0.717,3.138,0.717,4.335,0l96.774-58.064
	c1.193-0.719,2.166-0.171,2.166,1.227v10.111C151.662,50.966,150.688,52.68,149.496,53.397z"/>
</svg>
